<?xml version="1.0" standalone="no"?>
<!DOCTYPE svg PUBLIC "-//W3C//DTD SVG 1.1//EN" "http://www.w3.org/Graphics/SVG/1.1/DTD/svg11.dtd" >
<svg xmlns="http://www.w3.org/2000/svg">
<metadata></metadata>
<defs>
<font id="m_acadianregular" horiz-adv-x="684" >
<font-face units-per-em="2048" ascent="1638" descent="-410" />
<missing-glyph horiz-adv-x="500" />
<glyph horiz-adv-x="0" />
<glyph unicode="&#xd;" />
<glyph unicode=" " />
<glyph unicode="!" horiz-adv-x="417" d="M27 1434v53q160 -43 200 -43q31 0 78 12q58 17 78 19l-4 -27q-41 -10 -82 -45q-47 -39 -51 -74q-14 -147 -10 -358l8 -361q0 -242 -27 -266l-20 14l-19 439q0 -27 1 16t3 137q6 358 -30 432q-12 23 -53.5 38.5t-71.5 13.5zM156 66q0 156 59 180q35 0 55 -68 q17 -51 17 -100q0 -33 -17 -66q-18 -39 -49 -39q-29 0 -47 31t-18 62z" />
<glyph unicode="&#x22;" horiz-adv-x="432" d="M37 967q88 123 88 217q0 27 -21.5 79t-21.5 78q0 66 35 119h37q57 -39 57 -178q0 -184 -111 -352h-51zM221 954q86 123 86 217q0 27 -21.5 80.5t-21.5 77.5q0 66 35 121h37q59 -41 59 -180q0 -184 -112 -352h-50z" />
<glyph unicode="#" horiz-adv-x="1566" d="M92 -369v2212h1383v-2212h-1383zM184 360h203l-74 -360h232l71 360h183l-72 -360h229l72 360h205l57 265h-207l41 211h203l55 266h-202l71 358h-229l-72 -358h-182l74 358h-230l-75 -358h-203l-55 -266h206l-43 -211h-202zM672 625l43 211h180l-43 -211h-180z" />
<glyph unicode="$" horiz-adv-x="1538" d="M92 -369v2212h1354v-2212h-1354zM184 -14h484v-217h217v217h106q184 0 271 92q70 76 86 229q6 53 6 293q0 160 -82 256t-240 96h-147v56h418v481h-418v211h-217v-211h-119q-258 0 -328 -189q-37 -96 -37 -409q0 -285 193 -338q57 -16 291 -16v-52h-484v-499zM248 47v375 h481v178h-221q-139 0 -195 55q-66 66 -65 236v178q0 182 51 260q47 72 158 88q55 8 272 8v211h92v-211h418v-356h-418v-178h211q190 0 238 -156q20 -63 20 -313q0 -190 -43 -268t-149 -97q-59 -10 -277 -10v-215h-92v215h-481zM584 891h145v178h-145v-178zM647 952v56h21 v-56h-21zM821 422h131v178h-131v-178zM885 485v52h4v-52h-4z" />
<glyph unicode="%" horiz-adv-x="1658" d="M92 -369v2212h1475v-2212h-1475zM184 997q0 -90 54 -166q57 -86 143 -86h246q37 0 61 9l-403 -754h297l233 436q0 -195 6 -229q20 -131 117 -187q37 -20 74 -20h245q98 0 160 80q58 72 58 174v235q0 100 -55.5 169t-153.5 69h-256q-25 0 -43 -6l401 754h-293l-229 -426 v186q0 102 -60.5 171t-148.5 69h-258q-86 0 -140.5 -75t-54.5 -165v-238zM246 997v238q0 72 30 121q35 57 103 57h258q147 0 147 -178v-238q0 -190 -157 -190h-246q-68 0 -105 65q-31 53 -30 125zM389 61l723 1352h154l-721 -1352h-156zM434 1018h162v182h-162v-182z M877 254v235q0 72 30 119q35 57 103 58h256q147 0 147 -177v-235q0 -193 -156 -193h-245q-68 0 -105 66q-31 55 -30 127zM1065 272h162v187h-162v-187z" />
<glyph unicode="&#x26;" horiz-adv-x="1214" d="M25 358q0 264 251 490q86 76 86 82l-54 132t-54 206q0 76 58.5 157.5t131.5 81.5q96 0 171 -84t75 -182q0 -121 -162 -272q-55 -51 -55 -60q0 -16 80 -141q53 -82 100 -154q31 20 45 99q16 96 37 125q39 59 139 59q59 0 95.5 -38t36.5 -97q0 -35 -26 -63.5t-60 -28.5 q-35 0 -76 47q-2 59 24 82q25 -12 25 -37q0 -18 -6 -33q8 -16 20 -16q31 0 39 4q16 8 17 45q0 37 -26 64.5t-63 27.5q-86 0 -129 -106q-33 -80 -32 -183q0 -57 119.5 -259t171.5 -234q37 -25 176 -62q-2 0 -10.5 -11t-51.5 -11q-160 0 -186 10q-33 29 -86 96q-2 31 -19 88 q-12 29 -92 160q-10 0 -20 -18q-18 -215 -158 -334q-4 -4 -18.5 -21.5t-28.5 -17.5h-125q-92 0 -139 24q-84 43 -152.5 165t-68.5 218zM113 414q0 -139 57 -248q72 -133 199 -133q10 0 29.5 -8.5t29.5 -8.5q111 0 186 146q66 125 66 246q0 57 -92 204q-43 68 -131 207 q-23 35 -49 35q-43 0 -149.5 -118t-121.5 -169q-25 -82 -24 -153zM319 1278q0 -82 101 -303h39q92 96 112 127q43 66 43 162q0 70 -39.5 124t-107.5 54q-55 0 -101.5 -54.5t-46.5 -109.5z" />
<glyph unicode="'" horiz-adv-x="258" d="M37 967q88 123 88 217q0 27 -21.5 79t-21.5 78q0 66 35 119h37q57 -39 57 -178q0 -184 -111 -352h-51z" />
<glyph unicode="(" horiz-adv-x="391" d="M-31 604l8 402l109 342l176 223l39 -33l-143 -291l-74 -248v-426l61 -358l97 -262l-45 -53l-174 362z" />
<glyph unicode=")" horiz-adv-x="479" d="M23 1538l38 33l177 -223l108 -342l8 -402l-51 -342l-174 -362l-47 53l96 262l62 358v426l-74 248z" />
<glyph unicode="*" horiz-adv-x="1220" d="M92 -369v2212h1036v-2212h-1036zM184 838l125 -277l166 121v-231h268v231l166 -119l127 275l-172 123l172 126l-127 273l-166 -119v234h-268v-234l-166 119l-125 -273l174 -126zM260 817l201 144l-201 147l74 162l201 -144v289h149v-289l201 144l76 -162l-199 -147 l199 -144l-76 -164l-201 146v-289h-149v289l-201 -146z" />
<glyph unicode="+" horiz-adv-x="1316" d="M92 -369v2212h1133v-2212h-1133zM184 543h316v-412h315v412h318v356h-318v408h-315v-408h-316v-356zM244 602v236h317v407h195v-407h317v-236h-317v-409h-195v409h-317z" />
<glyph unicode="," horiz-adv-x="370" d="M41 -324q0 4 44 108.5t44 158.5q0 4 -27.5 51t-27.5 90v53q0 10 2 31v22q29 35 53 35q41 0 61 -71q15 -50 15 -107q0 -80 -44 -218t-44 -179q-10 0 -30.5 -6t-31.5 -6q-14 14 -14 38z" />
<glyph unicode="-" horiz-adv-x="536" d="M41 504v356h51q25 -143 107 -143q106 0 182 6q29 14 48.5 82.5t41.5 77.5l25 -25v-57q0 -285 -13 -299q-29 2 -49 24q-12 86 -44 107.5t-122 21.5q-125 0 -157 -28q-16 -14 -17 -54v-6q0 -61 -53 -63z" />
<glyph unicode="." horiz-adv-x="299" d="M29 16v121q0 86 37 125h49q4 -8 30 -47q0 -16 7.5 -53.5t7.5 -57.5q0 -125 -66 -124q-45 0 -65 36z" />
<glyph unicode="/" horiz-adv-x="1103" d="M92 -369v2212h920v-2212h-920zM184 -182h289l447 1657h-293zM264 -119l410 1532h166l-414 -1532h-162z" />
<glyph unicode="0" horiz-adv-x="894" d="M27 612q0 582 178 756q117 115 248 115q29 0 109.5 -31t105 -53.5t61.5 -75.5q41 -59 41 -86q0 -29 -27 -49q-39 47 -118 139q-72 80 -160 80q-188 0 -272 -250q-57 -170 -58 -403q0 -236 47 -406q74 -266 244 -266q14 0 38.5 -11.5t37.5 -11.5q39 0 141 105 q139 141 139 487q0 178 -43 305q-63 186 -204 187q-59 0 -97.5 -36t-38.5 -95q0 -66 60 -99l84 11v37q-33 10 -111 10v49q68 37 76 37q35 0 71.5 -38t36.5 -73q0 -43 -45 -82t-90 -39q-70 0 -116 64q-43 57 -43 129q0 80 63.5 135t144.5 55q158 0 256 -204q82 -171 82 -349 q0 -336 -112 -505q-18 -27 -88 -101q-59 -61 -69.5 -67.5t-76.5 -16.5q-35 -4 -53 -4q-233 0 -350 219q-92 174 -92 432z" />
<glyph unicode="1" d="M25 1235q0 94 110 94q39 0 76 -37v-49l-27 -24l-65 32q-4 -4 -9.5 -13t-9.5 -13q29 -29 68 -29q92 0 133 70q23 37 41 135q16 84 49 102q35 -10 39 -37v-55l21 -1194q0 -131 184 -164q14 -10 24 -33l-14 -28q-147 20 -254 20q-37 0 -100.5 -20.5t-85.5 -20.5 q-35 0 -60 49q16 25 109 46q84 18 106 75q16 43 15 230l-10 829l-17 19q-63 -63 -74 -72q-47 -37 -90 -37q-55 0 -104 35q-55 37 -55 90z" />
<glyph unicode="2" horiz-adv-x="884" d="M53 45q0 14 8 39l11 29q4 18 10 151q4 90 41 146q66 98 235 213q209 141 263 190q123 117 122 262q0 137 -81.5 219t-219.5 82q-86 0 -174 -59q-94 -68 -94 -150q0 -55 39 -114.5t92 -59.5q29 0 50.5 25.5t15.5 54.5q-10 18 -27 19q-14 0 -42 -15.5t-40 -15.5v59 q47 59 70 60q37 0 75.5 -39t38.5 -76q0 -55 -46 -96t-101 -41q-90 0 -143 71q-47 63 -47 158q0 135 92 215t229 80q174 0 291 -102q121 -109 121 -281q0 -215 -183 -354q-113 -68 -337 -209q-180 -121 -181 -318q0 -49 37 -49q16 0 50 10.5t51 10.5q51 0 168.5 -49.5 t168.5 -49.5q170 0 170 187q0 39 -32 78q-8 10 -64 57v39q59 12 47 12q41 0 80 -86q35 -76 35 -121q0 -121 -66.5 -192.5t-185.5 -71.5q-57 0 -159.5 55.5t-161.5 55.5q-57 0 -164 -76h-49q-12 59 -13 47z" />
<glyph unicode="3" horiz-adv-x="890" d="M31 336q0 92 49 160q53 76 141 75q68 0 119 -45t51 -112q0 -127 -121 -127q-41 0 -69.5 26.5t-28.5 67.5q0 -10 12 47h41q0 -27 21 -86h41q49 20 49 61q0 37 -35 65t-74 28q-57 0 -100 -43t-43 -101q0 -82 58.5 -167t136.5 -103q59 -14 141 -14q354 0 354 356 q0 160 -139 250q-96 61 -287 100q20 20 113 47q100 29 131 49q59 41 99 111t40 139q0 117 -94 193q-86 70 -207 69q-102 0 -176 -57q-82 -61 -82 -162q0 -45 35 -76.5t80 -31.5q37 0 73 39v49q-45 10 -34 10q-16 0 -72 -55q-27 16 -27 39q0 33 32 57.5t67 24.5 q39 0 74.5 -30t35.5 -69q0 -14 -28.5 -63t-40.5 -56q-31 -12 -91 -12q-76 0 -124 60q-45 53 -46 131q0 129 119 211q100 68 228 67q150 0 258 -103.5t108 -250.5q0 -166 -231 -320l30 -24q96 -27 173 -150q71 -113 71 -219q0 -182 -129 -295.5t-313 -113.5q-160 0 -274.5 98 t-114.5 256z" />
<glyph unicode="4" horiz-adv-x="931" d="M23 438q0 20 145 193q180 213 268 340q145 209 146 311q0 72 -29 93.5t-104 21.5q-41 0 -52 -31q-6 -18 -2 -70q41 -10 33 -10q39 0 39 53q0 14 -4 35q23 -2 37 10q27 -45 26 -69q0 -82 -92 -82q-51 0 -83 37t-32 88q0 53 58 92q51 35 106 35q63 0 113.5 -66.5 t50.5 -132.5q0 -152 -190 -424q-86 -121 -303 -383v-35h516q-16 285 -17 629q0 12 8.5 34.5t8.5 35.5l26 12q25 -33 29 -49v-500q0 -86 2 -143q16 -23 94 -23q61 1 88 -22q-12 -31 -59 -51q-8 12 -117 12q-10 -16 -10 -47q0 -270 162 -287q2 -4 2 -8q0 -2 -4 -19 q-2 -10 2 -18q-31 0 -91.5 8t-91.5 8q-20 0 -215 -32q-27 23 -26 43q0 25 74 51q84 27 98 55q37 70 37 213q0 8 -5.5 17.5t-5.5 15.5l-532 -12q-104 -2 -104 71z" />
<glyph unicode="5" horiz-adv-x="860" d="M33 324q0 98 45 170q51 82 145 81q59 0 114.5 -41.5t55.5 -99.5q0 -47 -26 -86q-31 -45 -76 -45q-74 0 -115 70v59l29 12q16 -80 47 -79q76 0 76 47q0 33 -30 65.5t-62 32.5q-51 0 -94.5 -55.5t-43.5 -108.5q0 -121 86 -203t209 -82q158 0 258 136q92 123 92 286 q0 98 -22 174q-29 96 -92 144q-18 31 -81 61.5t-99 30.5q-111 0 -201 -51q-49 -29 -113 -94q-47 -49 -69 -50v90q0 68 43 316q39 219 59 334q23 37 55 37q16 0 47 -19.5t43 -21.5q43 -14 142 -15q131 0 274 76l27 -25q-4 -45 -115 -100q-98 -49 -154 -49q-39 0 -112.5 21.5 t-112.5 21.5q-43 0 -51 -96q0 -4 -8 -129q-14 -78 -39 -238l16 -18q102 88 252 88q184 0 293 -160q96 -141 96 -334t-121 -344q-129 -160 -317 -160q-131 0 -240.5 110t-109.5 241z" />
<glyph unicode="6" horiz-adv-x="854" d="M27 659q0 293 88 517q121 305 360 305q119 0 218.5 -80t99.5 -195q0 -68 -54.5 -137.5t-120.5 -69.5q-51 0 -97 43t-46 95q0 92 88 92q51 0 88 -37v-37q-10 -14 -33 -14q-25 0 -49 33l-28 -17v-63q27 -29 67 -29q109 0 109 137q0 74 -68.5 138.5t-144.5 64.5 q-225 0 -324 -285q-66 -190 -65 -471q0 -229 63 -381q88 -211 287 -211q139 0 213 138q61 111 61 262q0 139 -92 242.5t-231 103.5q-84 0 -148.5 -55.5t-64.5 -137.5q0 -43 28.5 -78.5t69.5 -35.5q37 0 76 61q-2 14 -29 37q-6 -4 -36.5 -23.5t-41.5 -19.5q-12 0 -12 27 q0 23 29.5 52t52.5 29q37 0 64.5 -32.5t27.5 -71.5q0 -49 -38 -87t-87 -38q-76 0 -125 72q-45 63 -45 141q0 92 101 166q92 70 188 70q166 0 287 -142q114 -133 114 -301q0 -166 -102 -309q-113 -158 -270 -158q-231 0 -344 244q-84 182 -84 446z" />
<glyph unicode="7" horiz-adv-x="901" d="M29 997q0 29 22.5 67t48.5 38q35 0 62 -35q6 -8 37 -63q16 27 16 81q0 88 -49 185q-45 90 -115 153l12 62h68q16 0 51 -14.5t49 -14.5q31 -4 138 -4q301 0 477 10q26 -14 26 -32q0 -8 -67 -132q-72 -129 -80 -149q-72 -162 -100 -240q-51 -141 -64 -252l-24 -176 q-14 -102 -15 -178q0 -109 23 -160q33 -74 127 -86q16 -10 47 -32q-16 -51 -49 -52q-35 0 -104.5 16.5t-104.5 16.5q-27 0 -82 -10t-82 -10q-35 0 -59 24v37q20 41 61 53q14 2 84 9q55 68 57 122q10 328 72 570q70 279 225 528q12 20 15 39q-8 8 -142 8h-334 q-29 -27 -28 -71q0 -45 21.5 -134.5t21.5 -134.5q0 -61 -46 -118.5t-106 -57.5q-47 0 -80 47q-31 41 -30 90z" />
<glyph unicode="8" horiz-adv-x="890" d="M31 436q0 129 87 229.5t216 100.5q61 0 115.5 -49t54.5 -111q0 -47 -34 -87t-81 -40q-33 0 -68.5 34t-35.5 67t24 75h39q2 -31 10 -88q49 -10 37 -10q23 0 43 29v76q-37 39 -78 38q-229 0 -229 -280q0 -152 112.5 -255.5t266.5 -103.5q111 0 203 115q90 108 90 221 q0 156 -185 273q-66 41 -337 198q-182 129 -183 299q0 162 129 254q115 82 283 82q51 0 113 -26q125 -53 169 -130t44 -219q0 -147 -103 -227q-20 -16 -70.5 -36.5t-74.5 -20.5q-66 0 -124 48t-58 112q0 41 37.5 82.5t78.5 41.5q33 0 82 -69q0 -25 -14 -82q-18 10 -39 35 q-29 37 -33 41q-18 0 -37.5 -18.5t-19.5 -37.5q0 -43 34.5 -65.5t79.5 -22.5q195 0 195 215q0 137 -85 214t-224 77q-111 0 -187.5 -70.5t-76.5 -181.5q0 -145 176 -252l327 -188q176 -127 177 -303q0 -25 -6.5 -71t-6.5 -70q0 -82 -124 -199t-208 -117h-45q-16 0 -88 17 q-369 84 -368 456z" />
<glyph unicode="9" horiz-adv-x="919" d="M25 311q20 51 61 156q39 92 135 92q61 0 107.5 -41t46.5 -102q0 -29 -38 -69t-67 -40q-31 0 -62.5 31t-31.5 61q0 -8 14 50h39q23 -55 50 -56q18 14 18 39q0 49 -49 49q-53 0 -84 -40t-31 -95q0 -115 92 -197.5t209 -82.5q186 0 295 282q84 217 84 440q0 219 -78 392 q-100 223 -291 223q-137 0 -217 -111q-72 -98 -71 -241q0 -156 71 -256q80 -115 230 -115q96 0 154.5 51t58.5 146q0 98 -88 98q-31 0 -66 -41v-29l-2 -2q0 -6 18 -4q12 0 35 10.5t35 10.5t12 -27q0 -18 -23.5 -38.5t-41.5 -20.5q-41 0 -75 26.5t-34 65.5q0 53 39 89t92 36 q68 0 148 -72q16 -98 16 -102q0 -70 -26 -129q-16 -39 -103.5 -97.5t-128.5 -58.5q-197 0 -314.5 129t-117.5 326q0 172 105 307q111 147 278 147q186 0 303 -158q92 -125 127 -329q2 -10 25 -109q16 -71 16 -110q0 -276 -106 -519q-137 -309 -375 -309q-92 0 -183.5 50.5 t-142.5 127.5q-10 20 -32.5 91t-34.5 75z" />
<glyph unicode=":" horiz-adv-x="798" d="M92 -369v2212h615v-2212h-615zM184 0h430v483h-430v-483zM184 817h430v483h-430v-483zM246 61v363h307v-363h-307zM246 879v360h307v-360h-307z" />
<glyph unicode=";" horiz-adv-x="821" d="M92 -369v2212h637v-2212h-637zM184 29v-287h234q109 0 166 76q53 67 53 178v475h-436v-442h-17zM201 809h436v491h-436v-491zM246 -35h192v76h-176v369h313v-414q0 -193 -157 -193h-172v162zM262 870v369h313v-369h-313z" />
<glyph unicode="&#x3c;" horiz-adv-x="1306" d="M92 -369v2212h1122v-2212h-1122zM184 432l938 -487v397l-483 246l483 248v399l-938 -487v-316zM244 469v242l817 424v-263l-557 -284l557 -283v-260z" />
<glyph unicode="=" horiz-adv-x="1259" d="M92 -369v2212h1075v-2212h-1075zM184 231h891v334h-891v-334zM184 614h891v334h-891v-334zM242 289v219h776v-219h-776zM242 672v219h776v-219h-776z" />
<glyph unicode="&#x3e;" horiz-adv-x="1306" d="M92 -369v2212h1122v-2212h-1122zM184 -55l938 487v316l-938 487v-399l480 -248l-480 -246v-397zM244 45v260l555 283l-555 284v263l817 -424v-242z" />
<glyph unicode="?" horiz-adv-x="641" d="M31 1192q0 117 82 203t196 86q139 0 219 -84.5t80 -225.5t-96 -286q-18 -29 -178 -223q-96 -119 -96 -189q0 -102 71 -102q27 0 60 39q-12 25 -35 24q-12 0 -37 -20l-14 14v39q6 4 25.5 24.5t33.5 20.5q25 0 47.5 -27.5t22.5 -54.5q0 -35 -32 -68.5t-67 -33.5 q-53 0 -92 45t-39 100q0 102 94 219q59 70 173 215q94 127 94 275q0 233 -246 233q-76 0 -149.5 -71.5t-73.5 -145.5q0 -59 39 -100t98 -41t59 73q0 78 -49 78q-12 0 -34.5 -9t-34.5 -9q39 51 69 51q41 0 73 -28.5t32 -69.5q0 -49 -44 -95.5t-94 -46.5q-63 0 -112 66 q-45 59 -45 125zM238 111v28q0 90 65 90q29 0 49 -69q17 -57 17 -94q0 -29 -17 -56q-16 -33 -43 -33q-72 0 -71 134z" />
<glyph unicode="@" horiz-adv-x="2166" d="M92 -369v2212h1983v-2212h-1983zM184 571q0 -389 254 -630q248 -240 637 -240q377 0 684 246l-108 164q-250 -190 -555 -191q-309 0 -498 174q-195 178 -195 484q0 188 78 355t226 277q193 145 464 146q258 0 422 -139q176 -147 176 -400q0 -121 -45 -237 q-49 -127 -135 -197q-59 -49 -131 -49q-45 0 -45 61q0 10 2 19l148 641h-230l-47 -82q-63 113 -207 112q-217 0 -352 -192q-119 -170 -119 -397q0 -358 324 -359q168 0 272 156q8 -90 68.5 -143.5t150.5 -53.5q88 0 168 49q391 240 391 676q0 348 -235 557 q-227 201 -580 201q-428 0 -705.5 -290t-277.5 -718zM872 489q0 127 52 248q66 154 174 154q53 0 88 -39q14 -16 27.5 -53.5t9.5 -55.5l-45 -198q-47 -211 -195 -211q-111 0 -111 155z" />
<glyph unicode="A" horiz-adv-x="1286" d="M33 16v35q12 10 119 51q70 29 92 84q47 121 47 189q0 29 -39 49q-53 29 -74 55q-39 51 -39 158q0 113 72 197t182 84q6 0 8 41.5t11 80.5q51 246 51 314q0 49 -64 65q-88 25 -98 31l14 47h62q35 0 115.5 -15.5t123.5 -15.5q279 0 379 33l33 -35l-110 -57 q-66 -35 -66 -102q0 -61 29 -203q14 -68 41 -205l104 -625q10 -10 27 -34v-5q0 -98 84 -147q41 -25 116 -63l-32 -35q-33 18 -140 18q-41 0 -119.5 -5t-119.5 -5q-39 0 -66 8q0 8 17 43q16 10 59 16.5t61.5 15.5t43 43t24.5 54q0 188 -150 418q-164 250 -339 250 q-35 0 -35 -27q0 -39 68.5 -93t68.5 -136q0 -45 -33 -104.5t-72 -73.5q-47 -12 -94 -23q-49 -18 -49 -76q0 -141 23 -188q14 -29 94 -53q68 -20 65 -70l-2 -8q-12 -2 -26 -2q-41 0 -123 15t-123 15q-35 0 -102.5 -10t-102.5 -10zM207 631q0 -104 84 -168l20 20l60 215 q-18 -6 -55 -45t-68 -51v41q57 98 104 123q29 17 29 68q0 8 -10 18q-164 -63 -164 -221zM391 442q57 2 102.5 48.5t45.5 103.5q0 37 -34 67.5t-73 40.5q-39 -150 -41 -260zM465 930q6 -16 72 -33q82 -20 88 -23q145 -69 282 -313q8 6 8 25q0 16 -8 46t-10 42 q-16 131 -51 301q-49 231 -58 297q-4 27 -10 64.5t-20.5 51t-50.5 13.5q-135 0 -154 -25q-51 -291 -88 -446z" />
<glyph unicode="B" horiz-adv-x="1021" d="M31 -16q10 45 51 57q66 20 72 25q39 29 63 159q18 98 19 185v872q0 76 -31 102q-14 10 -78 31q-49 14 -76 51l31 33q154 -43 235 -43q41 0 121 10.5t121 10.5q150 0 268 -86q131 -96 131 -240q0 -223 -198 -320l-15 -16q143 -102 191 -178q55 -88 55 -246 q0 -170 -113.5 -281.5t-283.5 -111.5q-53 0 -157.5 6t-157.5 6q-33 0 -99.5 -16.5t-99.5 -16.5q-27 0 -49 7zM295 360q2 -180 18 -272q110 -22 162 -22h4q88 0 178 22q113 27 156 76q31 35 70 108q43 82 43 119q0 25 -7.5 70t-9.5 63q-6 76 -104 166t-176 90t-154 -43 q-88 -49 -88 -121q0 -37 33 -69.5t69 -32.5q20 0 50 27.5t30 48.5q0 51 -59 51q-6 0 -82 -70l-10 62q45 63 98 63q43 0 76 -34.5t33 -77.5q0 -123 -136 -123q-68 0 -112.5 44t-44.5 111q0 104 65 152q53 39 196.5 83t203.5 85q96 68 96 176q0 174 -139 242q-98 47 -293 47 q-115 0 -137 -10q-27 -604 -27 -750z" />
<glyph unicode="C" horiz-adv-x="890" d="M20 573v267q0 223 111 434q131 252 332 252q43 0 131 -59.5t113 -59.5q37 0 79 37q53 45 76 51v-49l-319 -447q-209 -317 -209 -475q0 -176 129 -176q106 0 106 129q0 18 -19.5 34.5t-37.5 16.5q-72 0 -72 -84q0 -14 2 -30q-6 -1 -12 -1q-43 0 -43 42q0 55 35 92t90 37 q102 0 102 -119q0 -68 -43 -120t-108 -52q-184 0 -184 242q0 119 90 276q55 92 166 276q90 152 90 218q0 133 -156 133q-221 0 -311 -287q-59 -186 -60 -469q0 -633 365 -633q150 0 221 121q59 98 59 258q0 78 -16 125t-61 117q8 16 28 16q49 0 86 -125q29 -100 29 -166 q0 -176 -90 -293q-98 -129 -270 -129q0 -10 -19 -10q-186 0 -307 219q-102 186 -103 391z" />
<glyph unicode="D" horiz-adv-x="1085" d="M37 -6q2 27 79 66.5t91 109.5q10 45 10 121l10 981q0 23 -20.5 62.5t-35.5 52t-81 28.5q-43 10 -43 60q23 -2 92 -11q57 -8 92 -8q33 0 60 25v-1352q0 -61 211 -61q473 0 473 661q0 246 -86 445q-113 258 -324 258q-209 0 -209 -152q0 -154 158 -154q27 0 66 45v78 q-18 20 -43 33q-27 -10 -31 -37v-51q0 -12 -6 -33q-59 59 -60 92q0 74 86 74q45 0 82 -32.5t37 -77.5q0 -57 -44 -106.5t-101 -49.5q-94 0 -145.5 61.5t-51.5 157.5q0 104 66.5 160.5t173.5 56.5q156 0 258 -86q84 -72 160 -227q8 -18 16 -64q8 -51 12 -65q61 -244 62 -326 q0 -35 -19 -156q-45 -293 -137 -417q-121 -164 -389 -164q-2 0 -66 2q-82 2 -170 4h-63q-92 0 -170 -4z" />
<glyph unicode="E" horiz-adv-x="1046" d="M6 27q16 27 77.5 45t84.5 45q43 53 43 184v666q0 49 -9 149.5t-9 149.5q0 104 -52 127q-66 16 -133 32q0 61 53 62q25 0 67 -11.5t62 -11.5q205 -10 490 -10q51 0 151.5 11.5t151.5 11.5q18 -18 18 -39q0 -18 -116 -195q-139 -209 -215 -362q-117 -236 -117 -402 q0 -55 36 -95t91 -40q23 0 43 13.5t20 33.5q0 33 -28 45q-14 -10 -41 -30q-29 0 -47 16q-2 23 34.5 46.5t61.5 23.5q76 0 76 -86q0 -57 -38 -92t-97 -35q-86 0 -136 69q-43 61 -43 150q0 61 56 223l-15 20q-63 8 -207 9q-43 0 -43 -54l11 -594q14 -25 43 -24h323 q180 0 221 39q33 31 54 209q14 123 67 278q-2 -27 -16 -176q-10 -106 -10 -176q0 -8 32 -258l-737 20q-29 0 -87 -13t-87 -13q-70 0 -84 39zM264 1217q0 -330 33 -396l217 -2q47 0 76 23q10 25 135 268q100 195 115 227q-1 64 -107 64q-51 0 -155.5 -7.5t-155.5 -7.5 q-18 0 -57 3.5t-58 3.5q-33 0 -43 -23v-153z" />
<glyph unicode="F" horiz-adv-x="1046" d="M18 2v31q23 29 107 41q70 10 88 80q33 121 37 299q0 -11 -1 -11t-1 312v360q0 10 -4 32.5t-4 33.5q0 16 3 48t3 48q0 74 -29 98q-14 12 -69.5 21.5t-77.5 27.5v45q96 0 311 -2h313q176 2 312 15q20 -20 18 -37q-41 -94 -169 -301t-183 -326q-86 -182 -86 -317 q0 -170 102 -170q84 0 84 71q0 39 -41 39q-12 0 -38.5 -28.5t-35.5 -32.5q-23 -2 -22 33q0 29 39 61.5t67 32.5q37 0 60.5 -36t23.5 -75q0 -51 -36.5 -91t-88.5 -40q-86 0 -138 61.5t-52 149.5q0 47 72 264q-4 4 -31 19q-18 -2 -43 -2q-27 0 -81 5t-81 5q-43 0 -43 -57 q0 -51 4 -152.5t4 -153.5q0 -57 -8 -77q2 -10 10 -127q4 -72 58 -109q16 -12 88 -31q53 -14 76 -49q-18 -16 -52 -16q-29 0 -83 11t-83 11q-18 0 -280 -30zM319 846q8 -8 35 -19q41 0 120 -5t120 -5q29 0 92 129q35 76 70 154q111 233 110 239q0 49 -37 62q-18 6 -75 6 q-70 -1 -212 -15q-100 -10 -165 -10q-27 0 -49 2z" />
<glyph unicode="G" horiz-adv-x="929" d="M27 719q0 283 86 500q117 297 354 297q82 0 179 -57.5t116 -57.5q35 0 110 55l37 -10q-510 -705 -510 -952q0 -66 27 -113q31 -59 92 -59q31 0 60.5 24.5t29.5 52.5q0 16 -12 36t-29 20q-14 0 -43 -23l-41 -33v45q0 25 24.5 50.5t49.5 25.5q41 0 67.5 -28.5t26.5 -71.5 q0 -57 -39 -105.5t-94 -48.5q-82 0 -131 76q-43 66 -43 152q0 133 88 311q20 41 162 287q88 154 88 219q0 63 -74 104q-63 37 -131 37q-364 0 -364 -725q0 -268 59 -444q90 -266 299 -267q35 0 80 23q70 35 76 37q102 39 135 194q16 80 16 256q0 80 -55 119q-23 16 -129 60 q63 0 299 -29q0 -23 -14 -49l-25 -47q-33 -121 -33 -271q0 -51 14.5 -150.5t14.5 -150.5q0 -23 -2 -39q-9 -4 -23 -8l-12 8q-14 43 -49 127q-109 -96 -129 -108q-59 -35 -164 -35q-250 0 -362 274q-82 199 -82 492z" />
<glyph unicode="H" horiz-adv-x="1208" d="M16 6q8 33 79 57.5t93.5 72.5t22.5 317q0 14 -71.5 93t-71.5 163q0 178 143 309q-6 133 -6 205q0 74 6 86q-25 59 -100 94q-82 37 -95 53q12 16 13 33h69q20 0 67.5 -20.5t67.5 -20.5q41 0 117 12q94 14 119 19q-8 -35 -61 -66q-63 -35 -82 -59q-43 -61 -43 -195 q0 18 2 -51v-51q10 -12 39 -13q23 0 66.5 10.5t66.5 10.5q88 0 188 -55q125 -70 186 -166q8 -16 25 -47q6 -8 21 -15q18 168 18 316q0 193 -33 256q-16 33 -78 49q-68 18 -96 55q31 31 49 31q33 0 94.5 -20.5t94.5 -20.5q27 0 182 33q-53 -57 -109 -113q-41 -51 -43 -154 l-10 -968q0 -35 -16 -60q14 -10 32.5 -40.5t30.5 -41.5q4 -4 58 -34q35 -20 47 -47q2 -3 4 -17q-2 -6 -15 -6q-23 0 -68.5 10t-68.5 10q-43 0 -126 -19t-126 -19q-18 0 -18 30q0 37 35 49q74 27 78 29q51 31 81 109v417q0 74 -77 170q-68 84 -142 129q-14 12 -41 33 q-86 53 -202 53q-115 0 -138 -40v-414l25 -39q227 27 227 176q0 43 -26.5 75t-67.5 32q-18 0 -47 -25t-29 -41q0 -4 66 -107h-51q-57 49 -58 117q0 106 123 107q66 0 110 -52.5t44 -119.5q0 -61 -51.5 -124t-110.5 -77q-8 -2 -135 -2l-19 -12q7 -38 7 -91v-14l-5 -102 q0 -78 48 -121q12 -12 94 -55q53 -29 61 -72q-33 0 -95 9t-95 9q-80 0 -135 -14q-12 -2 -39 -18q-14 -8 -70 -9zM131 735q0 -29 51 -153h27v331q-31 -27 -54.5 -82t-23.5 -96z" />
<glyph unicode="I" horiz-adv-x="456" d="M8 16v35q94 23 135 62q49 47 50 137v1083q0 41 -66 70q-33 12 -98 39q0 20 28 49q109 -41 189 -41q33 0 90 12q76 16 92 19q4 -18 18 -35q-57 -25 -114 -51q-63 -39 -66 -144l-10 -991q6 -12 12 -88q4 -47 37 -72q10 -6 76 -37q35 -16 59 -40l-4 -11l2 4v2q4 -2 4 -8 q0 -8 -16 -8q-37 0 -107.5 6t-107.5 6q-109 0 -174 -22z" />
<glyph unicode="J" horiz-adv-x="811" d="M16 281q0 111 56 192q61 92 168 92q63 0 112 -51t49 -115q0 -57 -30 -98q-35 -47 -90 -47q-45 0 -77 26.5t-32 71.5q0 37 47 78h62q0 -2 -27 -41q-18 -29 -18 -41q0 -23 38 -39q63 39 64 90q0 37 -25.5 65t-62.5 28q-160 0 -160 -205q0 -111 63.5 -178.5t174.5 -67.5 q100 0 145 43q39 37 70.5 144.5t31.5 193.5v889q0 41 -69 73q-90 43 -98 52l28 30h66q18 0 54 -14t50 -14q29 0 88.5 9t87.5 9q2 -37 -32 -51q-47 -18 -58 -37q-16 -23 -30 -119q-12 -84 -13 -131v-391q0 -59 -9 -179t-9 -179q0 -412 -297 -412q-135 0 -226.5 93t-91.5 231z " />
<glyph unicode="K" horiz-adv-x="1187" d="M39 -10q20 37 100 80q70 37 74 73q0 12 10 521l10 524q0 137 -36 174q-20 20 -146 55q6 20 12 62q27 -4 119 -19q78 -12 119 -12q23 0 65 5t64 5q29 0 49 -4q-4 -27 -77.5 -56.5t-82.5 -72.5q-12 -66 -12 -121l-10 -842v-29q0 -113 14 -198q4 -27 72 -63q78 -43 94 -60 q-37 -12 -82 -12q-16 0 -50 5t-50 5q-131 0 -256 -20zM315 477q0 106 146 309q61 84 274 338q147 174 148 207q0 49 -39 68q-6 2 -82 20v8q0 41 41 41q4 0 61 -14q45 -6 129 -6q29 0 77 14.5t71 16.5q33 -10 35 -23q-6 -6 -13 -6q-2 2 -2 6q0 6 15 6q-18 -29 -82 -78 q-74 -53 -95 -75q-55 -63 -190 -224q-158 -186 -158 -200q0 -25 154 -357q63 -145 125 -290q90 -164 227 -191q0 -33 -27 -59q-61 20 -221 20q-57 0 -127 -2l-28 12l-15 35l97 21q47 10 47 61q0 53 -127 336t-172 342q-39 -18 -123 -147t-84 -174q0 -109 86 -109q76 0 76 57 q0 41 -21 41q-16 0 -59 -94q-33 29 -33 59q0 37 21.5 67t56.5 30q41 0 68.5 -31t27.5 -72q0 -49 -41 -85t-92 -36q-63 0 -107.5 47.5t-44.5 110.5z" />
<glyph unicode="L" horiz-adv-x="960" d="M16 -12v30q8 14 84 40t88 71q23 86 23 268v908q0 55 -74 81q-96 35 -100 39v43q12 2 26 2q31 0 93.5 -15t93.5 -15q27 0 80 15t80 15q25 0 55 -30q-8 -10 -107 -72q-61 -37 -61 -115l-10 -1163q29 -31 164 -31q31 0 91 3.5t91 3.5q106 0 106 71q0 55 -57 236.5t-57 271.5 q0 88 43 156q51 76 135 76q49 0 92 -43t43 -93q0 -37 -32.5 -80t-67.5 -43q-78 0 -78 89q0 27 55 81q8 -17 8 -63v-20l13 -13q29 14 28 33q0 78 -67 78q-96 0 -97 -154q0 -131 70 -321q70 -199 156 -289v-47h-733q-27 0 -80.5 -10.5t-79.5 -10.5z" />
<glyph unicode="M" horiz-adv-x="1597" d="M31 131q0 55 37.5 95t93.5 40q41 0 70.5 -31.5t29.5 -72.5q0 -12 -11 -34t-18 -34q-8 8 -34 62q-18 37 -41 37q-41 0 -41 -52q0 -82 96 -82q98 0 98 154q0 96 -108.5 367.5t-108.5 427.5q0 190 113 338q124 159 307 159h2q188 0 311 -186h23q111 186 274 186 q199 0 314 -159q102 -141 102 -349q0 -164 -63 -311q-41 -84 -121 -256q-63 -139 -64 -242q0 -139 117 -139q109 0 109 88q0 27 -19.5 51.5t-46.5 24.5q-39 0 -39 -33q0 -14 6 -40.5t6 -41.5q0 -8 -6 -20q-67 33 -67 92q0 43 33.5 69.5t76.5 26.5q51 0 81 -41t30 -94 q0 -55 -51.5 -110.5t-106.5 -55.5q-94 0 -143 72q-45 63 -45 162q0 102 119.5 386.5t119.5 438.5q0 152 -75 270q-86 135 -230 136q-117 0 -198 -64q-86 -70 -95 -182q-2 -47 -8 -166q-6 -92 -6 -262v-543q0 -74 43 -113q18 -10 82 -45q41 -23 41 -57q-37 0 -111.5 9 t-111.5 9q-31 0 -93.5 -10t-93.5 -10l-16 16v33q6 6 100 49q86 39 86 266v865q0 92 -96 147q-82 47 -180 47q-82 0 -205 -94q-25 -18 -68 -104t-43 -115q0 -272 76 -475q29 -66 82 -199q41 -102 41 -219q0 -96 -47 -168q-55 -80 -147 -80q-61 0 -111.5 52.5t-50.5 113.5z " />
<glyph unicode="N" horiz-adv-x="1062" d="M4 23q37 14 84 34q88 39 102 109q2 8 5 172q-1 -112 -2 -112q-2 0 -3 376q0 82 9.5 248t9.5 248q0 162 -10 200q-27 98 -142 113q-14 8 -37 25v22q29 25 46 25q31 0 90 -11.5t90 -11.5q15 -45 15 -111q0 -15 -1 -30l10 -10q165 204 319 204h1q197 0 319 -159 q115 -145 115 -348q0 -145 -120 -426t-120 -373q0 -145 103 -146q94 0 94 82q0 27 -35 64h-59l-6 -74l-27 -12q-31 27 -31 49q0 29 29 63.5t55 34.5q53 0 90 -37.5t37 -91.5q0 -59 -44 -105t-103 -46q-168 0 -168 196q0 127 109.5 398.5t109.5 423.5q0 176 -74 292 q-88 141 -254 142q-160 0 -252 -121q-86 -111 -88 -275l-10 -733q6 -16 8 -102q2 -68 39 -103q14 -12 82 -43q53 -23 74 -63q-41 0 -123 9t-123 9q-18 0 -57 -15t-58 -15h-79z" />
<glyph unicode="O" horiz-adv-x="892" d="M12 690q0 297 78 514q111 309 350 309q109 0 211 -75q96 -72 142 -174v-58q-90 119 -144 162q-88 72 -198 72q-74 0 -121 -29q-29 -18 -94 -84q-29 -29 -84.5 -205t-55.5 -225l2 -297q2 -188 84 -356q102 -207 269 -207q332 0 331 596q0 606 -268 606q-72 0 -117 -44 t-45 -116q0 -47 39 -94t86 -47q41 0 67.5 31.5t26.5 72.5q0 27 -24.5 44.5t-52.5 17.5q-10 0 -70 -33l-33 21q31 65 105 65h2q59 0 99 -41t40 -100q0 -51 -57.5 -97.5t-108.5 -46.5q-82 0 -133 61.5t-51 145.5q0 102 65.5 164t167.5 62q139 0 221 -131q39 -61 68 -160 q23 -86 45 -170q14 -51 14 -72v-244q0 -233 -153 -434q-119 -153 -238 -153q-254 0 -375 264q-90 199 -90 485z" />
<glyph unicode="P" horiz-adv-x="933" d="M6 23l33 26q66 4 104 94q31 72 33 148l14 803q0 252 -71 295q-14 10 -111 36l17 50q158 -31 231 -31q45 0 133 10t133 10q156 0 266 -88q123 -94 123 -246q0 -154 -149 -251l-279 -136q-147 -72 -147 -168q0 -47 24 -83q29 -43 74 -43q35 0 61.5 25.5t26.5 60.5 q0 57 -41 57q-29 0 -39 -23.5t-18 -48.5q-39 -2 -39 31q0 37 29.5 65.5t66.5 28.5q104 0 105 -110q0 -66 -40 -106t-106 -40q-170 0 -170 199q0 121 142 194q88 43 262 127q141 86 141 221q0 152 -100 213q-78 47 -238 48q-16 0 -49 2t-49 2q-127 0 -127 -76v-1092 q0 -145 176 -176v-43q0 -18 -31 -18q-23 0 -76 15t-81 15q-39 0 -109 -12l-106 -18z" />
<glyph unicode="Q" horiz-adv-x="960" d="M29 741q0 287 86 498q117 287 360 287q123 0 238 -88t115 -196q0 -9 -1 -19q-45 53 -139 155q-72 74 -196 74q-213 0 -310 -246q-67 -170 -67 -421v-7q0 -514 180 -667q92 -78 166 -78h114v39q0 39 -62 118.5t-99 79.5q-23 0 -73 -20q-45 -17 -82 -17h-7q72 68 203 218 h45q8 -31 71.5 -185t69.5 -160h6q28 0 53 35q137 229 138 492q0 215 -50 375q-74 235 -238 235h-1q-72 0 -117 -42t-45 -114q0 -49 36 -92t85 -43q39 0 68.5 24.5t29.5 63.5q0 20 -20.5 43t-40.5 23q-16 0 -48 -9.5t-48 -9.5q10 74 100 74q113 0 113 -121q0 -63 -45.5 -113 t-108.5 -50q-74 0 -135.5 69.5t-61.5 145.5q0 80 76 152.5t158 72.5q106 0 207 -100q88 -86 125 -199q47 -143 47 -354q0 -352 -164 -566q-29 -29 -68 -82q6 -35 90 -172q78 -133 78 -155v-74q-6 0 -20.5 -6t-22.5 -6q-33 0 -106 172q-20 45 -90 215h-23q-76 -33 -123 -33 q-250 0 -364 285q-82 205 -82 499z" />
<glyph unicode="R" horiz-adv-x="995" d="M35 -20v45q8 4 39 22q68 0 104 80q31 63 31 139v989q0 72 -55 109q-31 20 -119 49l12 49q199 -20 229 -20q45 0 137.5 10t137.5 10q180 0 295 -90q127 -98 127 -274q0 -82 -64 -150q-35 -37 -123 -92q-72 -45 -79 -70l378 -1091v-70q-14 -16 -47 -16q-39 0 -53 26 q-27 53 -49 142q-10 49 -35 147q-41 143 -102 305q-16 51 -90 293q-70 225 -101 254q-252 -55 -252 -188q0 -137 107 -137q90 0 90 100q0 14 -2 27q-32 34 -56 34h-1q-10 0 -38 -40t-40 -54q-20 18 -21 49q0 41 35 70t78 29q49 0 82 -42t33 -94q0 -68 -58 -106 q-49 -37 -119 -37q-155 0 -155 178q0 158 153 226q39 16 283 112q152 82 152 246q0 135 -144 199q-106 49 -260 49q-150 0 -170 -27q-12 -16 -12 -174v-1014q0 -47 91 -100t93 -105q-31 0 -90 15.5t-90 15.5q-39 0 -115 -20.5t-100 -20.5q-8 0 -24.5 6.5t-22.5 6.5z" />
<glyph unicode="S" horiz-adv-x="862" d="M-6 -23q86 176 86 218q0 55 -31 169q-29 107 -29 166v7q45 -12 84 -144q49 -164 101 -231q92 -121 262 -121q152 0 240 102q81 97 81 248q0 125 -103 231.5t-226 127.5q-35 -33 -72 -160q-35 -119 -35 -180q0 -74 35 -125q39 -59 111 -60q112 0 112 117q0 98 -51 98 q-49 0 -72 -49q-12 -43 -26 -88l-37 14v72q49 111 141 111q100 0 101 -146q0 -70 -49.5 -126t-118.5 -56q-102 0 -156 82q-43 68 -43 176q0 74 35 172q47 133 57 166q-166 74 -248 143q-125 106 -125 246q0 154 95.5 251t248.5 97q82 0 187.5 -67.5t114.5 -67.5q33 0 127 88 v-12q0 -33 -37 -90q-150 -229 -265 -529q178 -84 256 -174q96 -111 97 -284q0 -164 -103 -281q-106 -123 -268 -123q-90 0 -199.5 57.5t-117.5 57.5q-49 0 -60 -37q-14 -49 -51 -66h-49zM92 1190q0 -131 109 -225q94 -82 233 -109q31 68 93.5 205t62.5 194q0 78 -78 134 q-70 51 -150 51q-270 0 -270 -250z" />
<glyph unicode="T" horiz-adv-x="1269" d="M4 823q0 41 24.5 73t65.5 32q29 0 58.5 -21.5t29.5 -50.5q0 -10 -6 -27.5t-6 -27.5q-49 63 -66 63q-37 0 -36 -41q0 -29 22.5 -49t50.5 -20q82 0 82 153q0 219 -172 527l8 30l615 -20q129 0 522 20l29 -30q-199 -319 -199 -506q0 -66 25 -117q31 -68 88 -68q27 0 49 19.5 t22 46.5q0 55 -34 55q-20 0 -35 -35q-23 -43 -27 -49q-29 18 -29 49q0 35 25 62t59 27q37 0 60.5 -31t23.5 -68q0 -43 -32 -88q-35 -51 -76 -51q-82 0 -133 63.5t-51 147.5q0 82 52 231.5t52 202.5q0 76 -121 76q-18 0 -55 -3t-55 -3q-84 0 -162 6v-1237q0 -18 24.5 -49 t42.5 -41q4 -4 74 -17q41 -6 45 -57q-41 0 -120 4t-120 4q-90 0 -219 -20q2 6 2 69l127 29q57 23 58 111l12 1204h-86q-20 0 -61 2t-62 2q-186 0 -186 -86q0 -55 42 -179t42 -188q0 -262 -168 -262q-49 0 -82 41t-33 92z" />
<glyph unicode="U" horiz-adv-x="1042" d="M12 1343q0 143 164 144q78 0 129 -82q43 -72 43 -156q0 -92 -63 -231q-41 -88 -121 -264q-63 -152 -64 -295q0 -158 82 -283q92 -143 244 -143q147 0 252 123q96 117 96 268v854q0 18 -26.5 64.5t-41 57.5t-71.5 15q-27 23 -27 43q0 18 31 19q35 0 99.5 -19.5t95.5 -38.5 q0 -51 7 -151.5t7 -151.5v-416q0 -55 -5 -163.5t-5 -163.5q0 -176 12 -236q8 -39 72 -61q47 -16 108 -53q-77 -23 -192 -23q-4 0 -66 25q12 51 12 98q0 29 -4 55q-39 -57 -92 -121q-29 -33 -115 -70.5t-131 -37.5q-190 0 -311 147q-117 139 -117 332q0 180 70 350 q8 14 131 254q70 137 70 238q0 68 -37 110.5t-103 42.5q-67 0 -67 -73q0 -31 16 -60h19q20 18 57 78q33 -33 33 -53q0 -33 -33 -65.5t-66 -32.5q-92 0 -92 126z" />
<glyph unicode="V" horiz-adv-x="1277" d="M25 1430q24 40 48 40h1q33 0 98.5 -15t97.5 -15q23 0 70 16.5t70 16.5q10 0 16 -7.5t14 -5.5q2 -27 -68.5 -69.5t-70.5 -71.5q0 -57 23 -160l34 -158q43 -203 111 -614q10 -76 47 -266q4 -20 51 -25l-11 1q0 1 77 1q37 0 47 41q23 86 65 305q27 121 66 308q20 115 59 342 q39 221 109 327q14 23 56 41.5t73 18.5q61 0 101 -38t40 -100q0 -39 -27.5 -77.5t-64.5 -38.5q-33 0 -102 67l16 68q18 -8 68 -62q29 16 28 50q0 31 -11 39t-44 8q-76 0 -108 -131q-45 -176 -107 -473q-74 -354 -102 -476q-18 -80 -19 -124q0 -55 49 -89q39 -26 90 -26h11 q6 -16 10 -53q-23 -27 -59 -27q-47 0 -142.5 15.5t-142.5 15.5q-55 0 -148 -13q-109 -14 -147 -16q-16 12 -29 37q10 35 82 43q63 8 62 72l-2 47q-2 35 -50 311q-70 408 -135 727q-18 88 -53 119q-27 23 -147 74z" />
<glyph unicode="W" horiz-adv-x="1767" d="M33 1421v37q35 35 51 35q31 0 92.5 -24.5t91.5 -24.5q29 0 86.5 4t85.5 4q0 -41 -34 -57q-6 -4 -70 -19q-37 -20 -37 -90q0 -121 74 -489q20 -90 65 -324q12 -88 45 -319q10 -66 45 -66q49 0 62 53q31 123 76 404q47 293 71 403q18 76 37 154q23 92 23 153q0 55 -46 98.5 t-102 43.5q-14 0 -26 -4q-14 6 -39 24v7q0 48 51 49q33 0 99.5 -14.5t99.5 -14.5q29 0 83 14.5t82 14.5q10 0 16.5 -11.5t24.5 -11.5q-18 -20 -69 -48t-64 -44q-27 -29 -26 -82q0 -68 30 -215q16 -74 47 -221q33 -199 127 -711q8 -41 54 -41q39 0 51 33q43 115 72 330 q14 115 45 342q70 471 166 630q14 25 55 42.5t74 17.5q63 0 104 -38t41 -99q0 -39 -28.5 -78t-65.5 -39q-20 0 -74 53l-18 82q23 -6 73 -61q29 16 29 49t-11.5 41t-43.5 8q-74 0 -113 -127q-8 -27 -102 -543l-95 -532q0 -70 43 -103q55 -27 109 -53v-37q0 -20 -45 -20 q-25 0 -50.5 12t-37.5 14q-94 14 -213 15q-37 0 -107.5 -15.5t-107.5 -15.5q-27 0 -51 27q4 29 78.5 62.5t74.5 70.5l-2 10l-147 838q-12 -14 -84 -397.5t-72 -438.5q0 -47 39 -76q8 -6 78 -41l6 -28l-29 -27q-141 31 -288 31q-61 0 -207 -41l-27 26v43q74 20 102.5 49 t28.5 101q0 74 -90 555t-117 557q-20 53 -82 82q-14 0 -40.5 2t-26.5 20z" />
<glyph unicode="X" horiz-adv-x="1284" d="M41 12v43q41 14 86 29.5t79 40.5t62 76q63 111 174 323q145 281 146 303q0 4 -74 125q-80 127 -90 150q-47 98 -78 149q-49 80 -113 125q-31 23 -149 47v52q176 -33 246 -33q29 0 84 17.5t84 17.5q18 0 24 -15h23q-23 -27 -64 -49q-33 -16 -71 -39q8 -90 90 -233 q35 -61 129 -223h2l8 6q14 25 135 258q82 158 158 241q55 61 149 62q53 0 98.5 -35t45.5 -86q0 -33 -32 -67.5t-65 -34.5q-27 0 -61.5 29.5t-34.5 56.5q0 25 37 57q10 -29 41 -78q49 12 49 47q0 55 -61 56q-74 0 -248 -263q-168 -252 -174 -340q49 -84 174 -303 q33 -66 98 -194q125 -244 316 -273l2 -10q0 -43 -37 -43q-35 0 -105.5 11.5t-105.5 11.5q-27 0 -217 -33v61q147 41 147 82q0 45 -53 123q-27 39 -80 117q-4 25 -18 76q-12 31 -79 145.5t-83 126.5l-158 -301q-119 -229 -119 -287q0 -41 58 -61q84 -29 88 -33l2 -10 q0 -39 -37 -39q-29 0 -85 16.5t-85 16.5q-80 0 -229 -43z" />
<glyph unicode="Y" horiz-adv-x="1173" d="M31 1442q0 20 26 49q31 -6 119 -35q59 -18 133 -18q20 0 63.5 17.5t65.5 17.5q18 0 35 -9q0 -35 -27 -57q-72 -2 -108 -45q55 -195 258 -627h4l8 6q53 143 164 430q125 307 262 308q49 0 83 -31t34 -80q0 -31 -29.5 -65.5t-60.5 -34.5q-70 0 -80 75q4 16 20 35 q16 -20 48 -55q18 6 36 23v36q-31 33 -57 33q-74 0 -137 -137q-12 -37 -72 -201q-37 -90 -110 -272q-68 -168 -68 -277q0 -285 16 -356q12 -49 62 -72l98 -43q16 -29 17 -49q-16 -18 -48 -18q-25 0 -96.5 21.5t-109.5 21.5q-37 0 -103.5 -21.5t-87.5 -21.5q-8 0 -22.5 6 t-18.5 6v70q29 4 103 16q88 18 112 174q8 53 8 232q0 131 -73 284q-25 51 -138 266q-27 68 -84 205q-57 127 -143 152q-31 8 -102 41z" />
<glyph unicode="Z" horiz-adv-x="1021" d="M14 20l813 1371l-14 18h-219q-174 0 -197 -14q-45 -23 -45 -64q0 -20 11.5 -58t13.5 -54q8 -92 8 -138q0 -49 -8 -90q-49 -59 -119 -59q-43 0 -84 32.5t-41 73.5q0 33 30 65t62 32q31 0 72 -41l-18 -62l-31 27h-23l-12 -31q23 -31 49 -31q63 0 64 121q0 92 -50 193 q-29 57 -104 172q256 -20 455 -21q88 0 280 23q14 -10 41 -31l-768 -1345q20 -23 45 -23l541 -12h3q48 0 48 61q0 66 -42 188.5t-42 188.5q0 86 33 154q41 86 117 86q51 0 84.5 -43t33.5 -97q0 -33 -22 -64.5t-53 -31.5q-25 0 -50.5 25.5t-25.5 50.5q0 18 35 65 q18 -11 18 -57v-10q16 -4 29.5 9t13.5 30q0 57 -69 57q-78 0 -78 -137q0 -158 96 -377q37 -55 96 -172q-111 0 -332 9t-331 9q-47 0 -141.5 -14t-141.5 -14z" />
<glyph unicode="[" horiz-adv-x="987" d="M92 -369v2212h803v-2212h-803zM184 -227h619v340h-174v1251h174v352h-619v-1943zM248 -164v1817h491v-226h-172v-1378h172v-213h-491z" />
<glyph unicode="\" horiz-adv-x="1103" d="M92 -369v2212h920v-2212h-920zM184 1475l443 -1657h293l-447 1657h-289zM264 1413h162l414 -1532h-166z" />
<glyph unicode="]" horiz-adv-x="985" d="M92 -369v2212h801v-2212h-801zM184 113v-340h617v1943h-617v-352h174v-1251h-174zM248 49h174v1378h-174v226h489v-1817h-489v213z" />
<glyph unicode="^" horiz-adv-x="1320" d="M92 -369v2212h1137v-2212h-1137zM184 864h312l166 207l163 -207h312l-342 545h-269zM283 918l274 438h207l274 -438h-186l-190 239l-193 -239h-186z" />
<glyph unicode="_" horiz-adv-x="987" d="M92 -369v2212h803v-2212h-803zM184 150h619v274h-619v-274zM229 195v184h529v-184h-529z" />
<glyph unicode="`" horiz-adv-x="808" d="M92 -369v2212h625v-2212h-625zM184 1425l271 -270h170l-154 270h-287zM293 1380h151l103 -180h-74z" />
<glyph unicode="a" horiz-adv-x="606" d="M31 236q0 106 71 165q66 53 174 54q31 0 117 -56q29 27 29 54q0 68 -37 122q-41 63 -104 64q-55 0 -119 -39q-35 -23 -107 -70q-14 -2 -14 27q0 66 84 105q64 30 134 30h5q209 0 209 -262q0 -43 -7 -131t-7 -131q0 -78 33 -107q12 -10 59 -24q33 -10 33 -39h-101 q-16 0 -49 15.5t-51 15.5q-25 0 -73 -21.5t-72 -21.5q-92 0 -152 82q-55 74 -55 168zM96 236q0 -74 45 -129.5t117 -55.5q154 0 154 207q0 61 -45 101t-109 40q-66 0 -114 -49t-48 -114z" />
<glyph unicode="b" horiz-adv-x="600" d="M-43 1083v41q55 0 168 -4l22 -22q0 -160 -8 -477q2 -4 6 -9q31 0 92.5 38t75.5 38q59 0 152 -59q110 -72 110 -326q0 -123 -67 -223q-76 -111 -195 -111q-53 0 -104 32t-76 79q-18 -10 -31.5 -45t-19.5 -41h-49l24 188q16 117 17 191q0 47 -5.5 139t-5.5 139 q0 16 11.5 49t11.5 50q0 190 -16 270q-6 35 -45 41q-55 10 -68 22zM129 346q0 -23 14 -59q143 110 340 239l-28 41q-84 55 -136 56q-35 0 -47 -5q-41 -27 -96 -73q-47 -68 -47 -199zM152 250l12 -31q33 25 174 121q120 82 149 127q-55 -18 -168 -115q-104 -88 -167 -102z M162 127q59 -92 141 -92q109 0 164 110q43 84 43 205q0 37 -14 66q-43 -27 -164 -125q-102 -84 -170 -117v-47z" />
<glyph unicode="c" horiz-adv-x="636" d="M31 346q0 139 88 253t225 114q98 0 167 -55.5t69 -151.5q0 -76 -48.5 -131.5t-121.5 -55.5q-51 0 -99.5 40t-48.5 92q0 39 32 68.5t71 29.5q33 0 63.5 -20.5t30.5 -51.5q0 -18 -37 -47h-49q-6 25 -31 66q-27 6 -27 -35q0 -39 28 -69t67 -30q45 0 85 35t40 80 q0 68 -53.5 119t-121.5 51q-98 0 -174.5 -76.5t-76.5 -175.5q0 -338 235 -338q115 0 191 72q27 25 75 80v-49q0 -61 -104 -123q-94 -57 -162 -57q-143 0 -231 114q-82 104 -82 252z" />
<glyph unicode="d" d="M76 586q68 129 194 129q59 0 105 -23q16 -6 92 -55l6 8q-8 43 -8 96q0 31 4 93.5t4 93.5q0 143 -131 172v41h203q27 -23 26 -54q0 -57 -16 -171.5t-16 -172.5q0 -92 -3.5 -277t-3.5 -278q0 -143 115 -145l-14 -37q-115 -14 -111 -14q-14 0 -20 4l-17 8v8q0 27 -18 45 q-87 -65 -148 -65h-2q-294 0 -294 348q0 141 53 246zM88 365q0 -41 16 -66q59 43 179 129l178 127q-51 55 -64 66q-38 28 -81 28h-3q-162 0 -213 -184q-12 -47 -12 -100zM100 225l76 13q61 37 166 114q121 90 141 127l-16 27q-14 -12 -197 -135q-139 -94 -170 -146zM143 139 q14 -29 76 -51q55 -20 94 -20q164 0 164 176q0 25 -3 70.5t-3 70.5h-39q-31 -33 -156 -121q-106 -76 -133 -125z" />
<glyph unicode="e" horiz-adv-x="647" d="M118 598.5q91 103.5 232 103.5q61 0 158.5 -66.5t97.5 -123.5q0 -37 -218 -192.5t-218 -174.5q0 -29 60.5 -64.5t91.5 -35.5h65q80 0 193 133l26 -28q-55 -94 -106 -130q-60 -40 -157 -40h-5q-143 0 -232 118q-79 105 -79 250q0 147 91 250.5zM92 369q0 -63 37 -115 q131 84 379 266q-18 45 -73.5 76t-106.5 31q-92 0 -164 -83t-72 -175zM137 213q39 2 187 104q63 45 190 136q3 8 3 16q0 4 -1 8v6z" />
<glyph unicode="f" horiz-adv-x="505" d="M33 672q29 8 84 35q16 27 24.5 154.5t30.5 176.5q41 86 150 86q74 0 122 -37.5t48 -109.5q0 -170 -115 -170t-115 98q0 35 19.5 61.5t52.5 26.5q16 0 42.5 -21.5t26.5 -37.5q0 -14 -16 -26.5t-33 -12.5q-8 0 -21.5 3t-21.5 3l-18 -4l18 -45l15 -6q14 8 57 12 q37 4 51.5 17.5t14.5 68.5q0 115 -111 115q-143 0 -143 -199q0 -37 2 -74q1 -26 1 -44.5t-1 -28.5q27 -27 100 -33q39 -2 117 -8q-39 -53 -80 -109q-29 -48 -29 -121v-10q25 12 64 23q12 -6 34 -25v-70q-25 -25 -49 -24q-12 0 -30.5 20.5t-22.5 22.5l-8 -6v-31 q39 -12 110 -43q-16 -18 -49 -18q-104 0 -104 196q0 70 67 137q-31 29 -55 29q-67 0 -67 -80q0 -72 6 -211t6 -209q0 -35 47 -77.5t51 -55.5q-59 -8 -129 -8q-68 0 -133 8q4 23 55 53q45 29 43 70l-2 74q0 35 6.5 99.5t6.5 94.5q0 41 -11 111q-12 82 -14 111q-28 24 -85 24 h-5z" />
<glyph unicode="g" horiz-adv-x="653" d="M20 330q0 141 66 241q74 115 209 115q33 0 94.5 -21.5t77.5 -43.5h4q25 0 45 43h105q0 -12 -25 -39t-27 -33q-22 -49 -22 -142v-8q0 -223 10 -395q2 -31 17.5 -99.5t15.5 -105.5q0 -47 -114 -115.5t-169 -68.5q-211 0 -211 158q0 147 154 147q49 0 78 -24q37 -35 53 -41 v-19q0 -72 -12 -110q-12 -2 -39 -13.5t-41 -11.5q-27 0 -59.5 23.5t-32.5 48.5t34 59h52v-15q0 -43 10 -61q18 -4 31.5 13.5t13.5 35.5q0 20 -33 46t-55 26q-98 0 -98 -98q0 -51 53 -88q47 -33 100 -33q70 0 133.5 67.5t63.5 137.5v149l-17 19q-31 -33 -94 -60.5t-108 -27.5 q-123 0 -197 114q-66 100 -66 230zM96 342q0 -45 17 -61q82 63 243 186q39 23 88 59q15 10 13 37q-141 57 -158 58q-90 0 -152 -97q-51 -86 -51 -182zM119 197l24 -7q12 6 174 127l162 121l-14 51q-31 -31 -189 -145q-137 -100 -157 -147zM164 123q16 -31 63 -56.5t84 -25.5 q31 0 93.5 28.5t70.5 51.5q19 57 19 96q0 143 -31 162q-197 -154 -299 -256z" />
<glyph unicode="h" horiz-adv-x="677" d="M29 4v41q51 0 91 28.5t40 78.5v753q0 70 -25 119q-26 55 -74 55q-10 0 -20 -2l10 41h182v-82q0 -231 -8 -358q10 -18 33 -19q2 0 60.5 23t93.5 23q111 0 175 -76t64 -189q0 -152 -80 -311q-10 -18 -147 -246q-78 -127 -78 -209q0 -57 41 -94t100 -37q66 0 84 33 q14 23 15 92q-20 20 -78 41q0 -25 6 -41q16 -29 16 -33q-12 -36 -51 -36h-2q-65 0 -65 63q0 41 36.5 64.5t77.5 23.5q45 0 85 -29.5t40 -72.5q0 -78 -61 -121q-53 -39 -135 -39q-72 0 -124 67.5t-52 141.5q0 57 79 192q131 221 148 254q80 158 80 277q0 217 -180 217 q-98 0 -140 -29q-49 -35 -49 -125q0 -37 3 -108.5t3 -108.5q0 -201 78 -239q-24 -27 -82 -27h-16q-20 1 -37 1q-50 0 -66 -9z" />
<glyph unicode="i" horiz-adv-x="299" d="M12 680q4 16 11 51h69q14 0 55 -18.5t50 -28.5v-213l-2 -213q0 -186 88 -207v-47h-248v47q70 20 96 53v510q-31 20 -119 66zM88 901q0 37 47 103q84 -8 84 -86q0 -31 -18.5 -60t-46.5 -29q-66 0 -66 72z" />
<glyph unicode="j" horiz-adv-x="423" d="M16 -209q0 45 35 91t78 46q47 0 86 -31.5t39 -76.5q0 -31 -22.5 -53.5t-53.5 -22.5q-27 0 -63 35v49q14 0 42.5 5t43.5 5q-33 35 -72 35q-37 0 -37 -68t21.5 -87t89.5 -19q29 0 57 55q27 49 27 82l10 735q-10 29 -35 54l-51 45l25 26q47 0 137 -12q0 -31 -10.5 -93.5 t-10.5 -92.5v-598q0 -14 19 -43q22 -35 24 -43q-92 -111 -94 -115q-57 -53 -133 -53q-68 0 -110 40t-42 105zM287 891q0 53 37 86h36q35 -70 35 -86q0 -31 -24 -74h-60q-25 47 -24 74z" />
<glyph unicode="k" horiz-adv-x="731" d="M-6 1067q14 41 59 41q115 0 131 -37q4 -51 4 -283v-507l29 -29q141 88 189 125q118 95 118 171q0 44 -29.5 74.5t-72.5 30.5q-57 0 -74 -30q-8 -16 -8 -82l25 -19q20 63 45 86h36q25 -20 25 -59q0 -70 -82 -70q-92 0 -92 109q0 49 40 84t91 35q37 0 94.5 -53.5 t57.5 -88.5l-50 -137q-49 -35 -59 -43q-33 -29 -33 -63q0 -31 67.5 -130.5t98.5 -112.5t62.5 -29.5t31.5 -49.5h-233q-14 0 -14 27q0 10 22.5 31.5t22.5 33.5q0 14 -129 193q-27 -20 -90.5 -46t-69.5 -34q-20 -27 -21 -115q0 -35 99 -57v-31q-82 -2 -142 -2q-96 0 -116 6 q53 45 67 60q29 35 29 81q0 51 -4 153.5t-4 154.5q0 53 5 161.5t5 161.5q0 141 -27 234z" />
<glyph unicode="l" horiz-adv-x="311" d="M20 1100q27 0 80.5 6t79.5 6q4 -233 4 -334v-624q0 -8 -4 -22.5t-4 -22.5q0 -45 90 -72q15 -23 17 -37q-43 -12 -113 -12h-115l-2 12q0 25 33 56.5t33 45.5v895q0 12 -43 52q-51 45 -56 51z" />
<glyph unicode="m" horiz-adv-x="1107" d="M33 666q8 49 51 49q12 0 39 -5t39 -5q25 0 41 12q14 -18 45 -55l51 28q51 27 90 27q90 0 129 -25q23 -18 90 -106q29 12 57.5 50t45.5 48q39 23 131 23q98 0 168 -97q63 -86 63 -188q0 -166 -72 -291q-43 -68 -131 -205q-71 -111 -71 -208q0 -71 37.5 -122t103.5 -51 q121 0 121 99q0 39 -39 77l-70 -8q45 -16 66 -39v-51q-37 -35 -72 -35q-33 0 -57.5 25t-24.5 57q0 37 34 71t71 34q61 0 131 -49q16 -99 16 -93q0 -66 -51 -104.5t-119 -38.5q-96 0 -160.5 61.5t-64.5 157.5t78 217q49 72 141 217q78 127 78 256q0 88 -51 160 q-57 82 -142 82q-29 0 -93 -36t-75 -60q-24 -51 -24 -159v-9q0 -236 14 -297q16 -14 43 -21l53 -12q-2 -20 -24 -39q-35 0 -105.5 -7t-105.5 -7t-49 16q12 23 46 43.5t44 38.5q20 39 20 127q0 35 -3 102.5t-3 102.5q0 63 6 80q-10 59 -53 103t-100 44q-125 0 -152 -61 q-37 -84 -37 -426q0 -66 29 -88q4 -4 53 -23q29 -10 29 -47q-34 -4 -90 -4h-40q-28 1 -52 1q-47 0 -74 -3q0 2 -8 16.5t-8 28.5q8 6 49 10q33 2 45 33q0 20 8 115q6 72 6 116v283q0 25 -59 39q-74 18 -82 25z" />
<glyph unicode="n" horiz-adv-x="712" d="M33 10q4 33 33 43q8 4 57 10q37 16 37 127q0 20 -3 59.5t-3 57.5q0 23 4 67t4 66q0 119 -12 172q-18 14 -107 43l12 52h90q45 0 64 -15q4 -4 37 -49q111 66 180 66q113 0 182.5 -91t69.5 -206q0 -141 -82 -289q-2 -2 -154 -236q-82 -125 -82 -202q0 -39 43 -83t82 -44 q53 0 95 39q0 59 -31 104l-37 -10q2 -6 12.5 -21.5t10.5 -29.5q0 -49 -54 -50q-41 0 -78 60q14 39 51.5 72.5t75.5 33.5q39 0 71 -39t32 -77q0 -61 -43 -104.5t-105 -43.5q-90 0 -140 60.5t-50 152.5q0 82 78 211q51 78 149 240q78 135 78 268q0 78 -52 142.5t-128 64.5 q-117 0 -162 -80q-33 -59 -33 -186q0 -25 2 -75t2 -75q0 -92 9 -113q14 -39 90 -77l-13 -27q-68 -4 -120 -4q-113 0 -162 16z" />
<glyph unicode="o" horiz-adv-x="647" d="M31 360q0 139 90 243t227 104q109 0 199 -113q86 -104 86 -217q0 -147 -70 -260q-82 -133 -221 -133q-131 0 -209 98q-68 84 -84 223q-18 27 -18 55zM96 356q0 -41 17 -55q82 61 254 172q27 8 77 29q37 20 35 47q-69 69 -107 69h-1q-123 0 -199 -70.5t-76 -191.5z M119 240l16 -25q74 57 197 131q164 96 203 123l-15 29h-37q-6 -6 -186 -125q-115 -76 -178 -133zM174 141q12 -18 73.5 -50t84.5 -32q100 0 166 117q57 98 57 207q0 27 -14 39l-367 -234v-47z" />
<glyph unicode="p" horiz-adv-x="659" d="M18 -336q100 43 101 217q0 20 -2 60.5t-2 60.5q0 63 8 191.5t8 191.5q0 33 -16 209q-16 10 -92 45l-3 25q25 14 86 14q37 0 70 -4q33 -39 57 -39q10 0 49.5 26.5t67.5 26.5q293 0 293 -422q0 -102 -80 -190t-182 -88q-59 0 -112.5 31.5t-67.5 33.5q-29 -8 -29 -90 q0 -31 6 -104q6 -88 8 -88q8 -29 58 -56q37 -18 37 -47v-6q-22 -24 -41 -24h-2q-57 0 -220 26zM184 233q16 -14 39 -14l312 246l-64 16q-25 -29 -156 -127q-117 -88 -131 -121zM195 340q29 6 168 101.5t139 105.5q0 35 -34 55.5t-71 20.5q-70 0 -133 -45q-70 -47 -69 -115 v-123zM205 145q40 -79 157 -79h3q100 0 155 86q47 74 47 180q0 45 -14 71h-49q-57 -57 -180 -157q-27 -14 -95 -56q-20 -12 -24 -45z" />
<glyph unicode="q" horiz-adv-x="624" d="M18 342q0 141 86 242q89 108 225 108h3q66 0 164 -98q18 12 33.5 45t25.5 43q18 -14 18 -43q0 -14 -10 -53q-4 -18 -4 -31q-8 -49 -10 -182q-1 -61 -1 -116t1 -103q0 -61 2 -134q2 -61 2 -71q0 -182 16 -223q6 -16 37 -40t37 -40l-27 -25q-63 10 -159 10h-47l-17 -8v60 q35 16 39 16q25 12 33 27q37 66 37 278q0 53 -29 53q15 0 15 -4q0 -9 -60 -33q-90 -38 -129 -38q-125 0 -207 120q-74 109 -74 240zM86 330l23 -13q115 74 348 215q-55 84 -109 84q-231 0 -262 -286zM109 264q4 -20 12 -63q82 43 184 110l180 121l4 27l-36 26 q-133 -96 -168 -118q-96 -63 -176 -103zM150 152q88 -104 169 -105q84 0 138 92q45 80 45 170q0 37 -17 66q-115 -70 -335 -223z" />
<glyph unicode="r" horiz-adv-x="505" d="M23 14q35 27 69 54q41 35 47 67q27 131 27 428q0 29 -49 51q-33 14 -72 35v39l68 2h14q47 0 69 -12q26 -14 54 -66q53 33 186 78q2 -2 39 -26l-94 -144q-51 -78 -51 -162q10 4 39.5 24.5t44.5 20.5q23 0 47 -29t24 -52q0 -33 -30.5 -64t-63.5 -31q-49 0 -104 138 q0 57 45 194q-20 10 -33 10q-90 0 -90 -297q0 -102 8 -139q16 -78 82 -108q-39 -39 -68 -39q-33 0 -97 6t-97 6q-6 0 -14 16z" />
<glyph unicode="s" horiz-adv-x="583" d="M31 199q0 147 147 147q49 0 93 -38t44 -87q0 -39 -29.5 -66.5t-68.5 -27.5q-108 0 -108 82q0 27 22.5 44t46.5 17q12 0 33.5 -10t32.5 -12l6 8v18q-41 29 -72 29q-92 0 -92 -88q0 -78 68 -119q57 -35 139 -35q68 0 122 34t54 98q0 115 -111 153q-68 20 -204 62 q-113 45 -113 153q0 72 55.5 120t126.5 48q84 0 173 -44t128 -114l-14 -39q-12 4 -57 43t-66 50q-55 28 -126 28h-5q-43 0 -82 -24q-45 -27 -45 -68q0 -61 111 -98q176 -59 206 -78q111 -65 111 -192q0 -82 -98 -148q-88 -59 -176 -59q-100 0 -172 55q-80 59 -80 158z" />
<glyph unicode="t" horiz-adv-x="524" d="M23 682q20 20 67 32.5t62 24.5l2 -2q2 4 2 21q0 37 -66 98q2 12 33 41l41 41q20 31 35 86q10 41 24 92h39q25 -25 25 -45q0 -53 -27 -156.5t-27 -156.5q0 -20 21.5 -34.5t44.5 -14.5q14 0 32.5 8t26.5 8q27 0 93 -29l12 -26q-131 -160 -131 -250l-2 -2q0 -8 18 -6 q10 0 35 16t37 16q33 0 55.5 -26.5t22.5 -61.5q0 -88 -95 -88q-66 0 -100 68q-27 51 -27 125q0 63 78 164q-39 41 -88 41q-10 0 -19 -5.5t-16 -5.5q0 -29 -5 -83t-5 -83q0 -154 25 -368q27 -31 84 -31q35 0 47 78h39q14 -12 14 -43q0 -49 -44 -96t-93 -47q-154 0 -154 186 q0 59 8 194q7 111 7 179v16l-2 88q-10 4 -64 4q-31 0 -51 6z" />
<glyph unicode="u" horiz-adv-x="731" d="M20 688q29 16 82 17q61 0 78 -19q6 -29 8 -84q1 -30 1 -52t-1 -36q-4 -80 -4 -84q0 -166 13 -223q29 -137 131 -137q66 0 118 24q66 33 68 90q2 66 6 187q4 109 4 186q0 35 -25.5 60.5t-60.5 25.5q-10 0 -20 -4q-12 61 -12 51q53 14 135 15q49 0 49 -60q0 -10 -5 -27.5 t-5 -27.5v-473q0 -33 51 -47q61 -19 69 -27q-18 -51 -82 -51q-25 0 -69.5 16.5t-67.5 16.5q-27 0 -80 -21.5t-79 -21.5q-145 0 -185 151q-16 66 -16 273q0 47 -10 116q0 6 4 20.5t4 20.5q0 16 -43 64q-27 31 -56 61z" />
<glyph unicode="v" horiz-adv-x="772" d="M29 666q26 34 59 34h2q12 0 36 -3t36 -3q57 0 133 8l24 -24q-31 -20 -88 -66q8 -164 152 -415q37 31 98.5 181t61.5 202q0 39 -35 59q-53 31 -62 39l5 10l-2 6l4 11q39 4 137 4q92 0 151 -4l4 -7q-2 0 -8 -10q-4 -10 6 -10q-47 -31 -127 -113q-14 -20 -34 -86 q-10 -33 -37 -100q-29 -53 -72 -201q-39 -126 -80 -196q-27 4 -45 22q-8 61 -39 176q-29 78 -90 229.5t-106 211.5q-33 16 -84 45z" />
<glyph unicode="w" horiz-adv-x="1093" d="M47 647v37q6 2 24.5 11.5t30.5 9.5q51 0 234 -23q-12 -18 -43 -39q-39 -25 -47 -33q16 -78 67 -209l80 -206q20 6 86 179t66 212q0 27 -49 45q-66 25 -70 28l23 31h118q68 0 117 -24q-80 -31 -80 -70q0 -18 49 -188q51 -176 60 -213l35 -9q23 47 77 203q59 168 60 201 q0 31 -43 45q-49 18 -58 31q16 29 41 28q2 0 119 -4q23 -1 43 -1q42 0 76 3v-43q0 -10 -31 -10l-18 -6q-160 -195 -244 -627l-18 -18h-35q-12 23 -17 59q-6 57 -8 64q-18 72 -114 335q-25 -14 -66 -127q-35 -96 -45 -149q-2 -51 -14 -150q-10 -41 -54 -43q-27 12 -34 68 l-13 84q-37 111 -100 260q-84 199 -123 223q-29 8 -82 35z" />
<glyph unicode="x" horiz-adv-x="860" d="M35 39q39 18 74 35q43 20 67 47q51 53 111 127q86 109 86 135q0 23 -66 111q-59 80 -88 104q-18 16 -90 39q-49 16 -51 45q6 18 24 18h238q43 0 68 -18q-6 -10 -76 -55l-2 -13q-2 -31 35 -84q31 -45 63 -71q41 45 121 135v33q-27 12 -76 43l10 16q162 16 226 16 q35 0 61 -4q-20 -27 -70 -57q-57 -37 -73 -53q-27 -25 -84.5 -100.5t-57.5 -100.5q0 -12 50 -76l65 -84q131 -201 219 -207l-4 -22q-8 -6 -22 -6q-8 0 -26.5 4t-29.5 4q-18 0 -55 -4t-55 -4q-55 0 -146 8q55 49 98 49h3l2 8q8 8 8 25q0 27 -68.5 122t-95.5 111 q-74 -76 -152 -198v-45q39 -6 109 -33v-41h-340z" />
<glyph unicode="y" horiz-adv-x="712" d="M-10 -180q0 157 119 157h2q47 0 77.5 -30.5t30.5 -77.5q0 -51 -72 -88q-35 0 -69 37q0 8 18.5 34.5t18.5 45.5v14q-18 -6 -49 -29v-86q59 -49 81 -49q76 0 127 94q43 78 43 162q0 2 -30 111q-12 76 -58 182l-71 176q-2 4 -14.5 63.5t-80.5 90.5q-49 23 -63 32q2 29 25 52 h270v-64q-53 -25 -53 -59q0 -31 55 -189q14 -41 74 -202q20 0 78 186q49 158 67 235q-39 8 -110 41q2 18 24 41q115 0 180 5q27 6 74 12q-92 -156 -174 -408q-41 -84 -80 -196q-6 -14 -61 -263q-20 -31 -45 -96q-88 -104 -220 -104q-53 0 -88 61q-27 49 -26 109z" />
<glyph unicode="z" horiz-adv-x="747" d="M43 31q0 35 37 63q55 43 57 49q121 154 365 459q0 8 -19 27h-235q-2 -8 -2 -19q0 -14 8 -42.5t8 -43.5q0 -63 -38 -116.5t-99 -53.5q-27 0 -54.5 33t-27.5 59q0 20 27.5 51t48.5 31q29 0 43 -12q2 -8 2 -20q0 -14 -7 -44t-7 -44q37 20 36 57q0 106 -100 201q38 30 108 30 h5q18 0 56 -3t56 -3q47 0 142.5 7.5t142.5 7.5q27 0 49 -33l-438 -568q0 -8 18 -24h291l19 18q-10 25 -33 74q0 143 28 170q14 -8 19 -16q4 -6 0 -19q-2 -16 -2 -25q0 -62 108 -239q0 -8 -24 -45l-574 -6q-14 14 -14 39zM590 309q0 55 61 56q20 0 47 -25v-49 q-18 -35 -53 -35q-55 0 -55 53z" />
<glyph unicode="{" horiz-adv-x="1040" d="M92 -369v2212h856v-2212h-856zM184 547q14 0 41 2h39q63 0 77.5 -22.5t14.5 -123.5v-231q0 -225 107 -295q78 -51 258 -51h135v383q-23 0 -65.5 -2t-65.5 -2q-8 0 -8 16q0 6 2 19v16v244q0 168 -78 237q78 72 78 238v244v18q-2 10 -2 16q0 16 8 17h47h41q29 -2 43 -2v381 h-133q-184 0 -260 -50q-106 -68 -107 -296v-234q0 -98 -15 -121.5t-58 -23.5q-8 0 -21 2h-20h-58v-379zM248 610v252q109 0 145 56q27 41 27 151v234q0 195 78 243q61 39 227 39h68v-254q-96 0 -117 -26.5t-21 -112.5v-217q0 -106 -24 -154q-33 -61 -131 -86 q90 -20 122.5 -67t32.5 -168v-217q0 -78 15 -103q20 -37 90 -37q4 0 12 2h10h11v-256h-68q-182 0 -243.5 53.5t-61.5 229.5v231q0 104 -25 148q-33 61 -127 61q12 0 -20 -2z" />
<glyph unicode="|" horiz-adv-x="696" d="M92 -369v2212h512v-2212h-512zM184 -33h328v1540h-328v-1540zM246 31v1413h205v-1413h-205z" />
<glyph unicode="}" horiz-adv-x="1040" d="M92 -369v2212h856v-2212h-856zM184 -174h127q188 0 267 51q106 70 106 295v231q0 100 14.5 123t59.5 23h49q33 -2 49 -2v379h-57h-15q-12 -2 -16 -2q-53 0 -68.5 23.5t-15.5 121.5v234q0 229 -106 296q-76 49 -259 50h-135v-381q14 0 43 2h41h47q8 0 9 -31v-22 q-2 -16 -2 -25v-217q0 -166 77 -238q-78 -70 -77 -237v-217q0 -8 2 -23v-24q0 -27 -7 -31h-36q-16 0 -48 2t-49 2v-383zM248 -111v256h10h10q8 -2 13 -2q70 0 90 37q14 25 14 103v217q0 121 33 168t123 67q-96 25 -129 88q-27 47 -27 152v217q0 86 -20.5 112.5t-116.5 26.5 v254h67q113 0 166 -14q96 -25 123 -101q16 -45 17 -167v-234q0 -207 147 -207h25v-252q-31 2 -19 2q-94 0 -129 -63q-25 -45 -24 -146v-231q0 -123 -17 -166q-43 -117 -289 -117h-67z" />
<glyph unicode="~" horiz-adv-x="1271" d="M92 -369v2212h1088v-2212h-1088zM184 532q59 53 185 148q49 31 94 31q63 0 177 -46.5t177 -46.5q118 0 270 127v361q-102 -92 -124 -109q-86 -68 -142 -67q-27 0 -148.5 47t-195.5 47q-123 0 -293 -131v-361zM236 647v221q135 104 241 105q72 0 266 -76q47 -18 78 -18 q96 0 215 110v-221q-117 -98 -219 -98q-55 0 -167.5 46t-186.5 46q-98 0 -227 -115z" />
<glyph unicode="&#xa0;" />
<glyph unicode="&#xa4;" horiz-adv-x="1533" d="M92 -369v2212h1350v-2212h-1350zM184 467l138 -143l202 206q115 -72 246 -71q131 0 240 71l202 -206l138 143l-203 205q70 117 70 233q0 127 -70 236l203 207l-138 139l-202 -205q-96 70 -240 70q-141 0 -246 -70l-202 205l-138 -139l203 -207q-68 -109 -68 -232 q0 -133 68 -237zM516 905q0 102 76 176t178 74t175 -74t73 -176q0 -98 -75 -174t-173 -76q-102 0 -178 74t-76 176z" />
<glyph unicode="&#xa6;" horiz-adv-x="696" d="M92 -369v2212h512v-2212h-512zM184 -121h328v803h-328v-803zM184 795h328v802h-328v-802zM248 -57v678h201v-678h-201zM248 856v678h201v-678h-201z" />
<glyph unicode="&#xa7;" horiz-adv-x="1269" d="M92 -369v2212h1086v-2212h-1086zM184 586q0 -188 51.5 -261t167.5 -85q33 -4 285 -4v-62h-465v-432h654q100 0 154 59.5t54 159.5v162q0 123 -59 186q59 92 59 277v211q0 199 -49 276q-47 72 -166 84q-31 4 -297 4v62h480v430h-658q-211 0 -211 -219v-162q0 -100 64 -178 q-63 -98 -64 -297v-211zM246 578v229q0 250 98 291q-98 37 -98 174v162q0 84 33.5 119.5t115.5 35.5h594v-303h-479v-188h313q63 0 103 -11q68 -18 88 -118q10 -47 10 -164v-227q0 -188 -55 -246q-18 -18 -43 -33q98 -27 98 -176v-162q0 -156 -147 -156h-590v306h465v188 h-306q-61 0 -98 10q-102 29 -102 269zM510 586h242v211h-242v-211zM573 649v84h115v-84h-115z" />
<glyph unicode="&#xa9;" horiz-adv-x="2107" d="M92 -369v2212h1923v-2212h-1923zM184 -29q0 -92 41 -123.5t135 -31.5h1387q96 0 136 30.5t40 124.5v1569q0 94 -40 125t-136 31h-1387q-94 0 -133 -29q-43 -35 -43 -127v-1569zM360 -29v1569h1387v-1569h-1387zM571 483q0 -195 91 -262q74 -55 278 -55h633v317h-633v553 h633v305h-633q-197 0 -272 -53q-96 -66 -97 -252v-553z" />
<glyph unicode="&#xab;" horiz-adv-x="1224" d="M92 -369v2212h1041v-2212h-1041zM184 412l146 -254h708l-176 338v106l178 324h-710l-146 -254v-260zM242 428v227l120 213h232l-143 -252v-135l143 -266h-232zM508 496v104l29 49v-207zM594 428v227l121 213h229l-139 -252v-135l139 -266h-229z" />
<glyph unicode="&#xac;" horiz-adv-x="1746" d="M260 616v273h1227v-512h-279v239h-948z" />
<glyph unicode="&#xad;" horiz-adv-x="536" d="M41 504v356h51q25 -143 107 -143q106 0 182 6q29 14 48.5 82.5t41.5 77.5l25 -25v-57q0 -285 -13 -299q-29 2 -49 24q-12 86 -44 107.5t-122 21.5q-125 0 -157 -28q-16 -14 -17 -54v-6q0 -61 -53 -63z" />
<glyph unicode="&#xae;" horiz-adv-x="2107" d="M92 -369v2212h1923v-2212h-1923zM184 -29q0 -92 41 -123.5t135 -31.5h1387q96 0 136 30.5t40 124.5v1569q0 94 -40 125t-136 31h-1387q-94 0 -133 -29q-43 -35 -43 -127v-1569zM360 -29v1569h1387v-1569h-1387zM571 166h365v479h272v-479h363v383q0 160 -162 207 q162 43 162 207v145q0 125 -59.5 179t-186.5 54h-754v-1175zM936 866v170h272v-170h-272z" />
<glyph unicode="&#xb0;" horiz-adv-x="991" d="M92 -369v2212h807v-2212h-807zM184 1106q0 -123 94.5 -215t217.5 -92q121 0 216 93t95 214q0 125 -92 219t-217 94q-123 0 -218.5 -95t-95.5 -218zM240 1106q0 104 76.5 181t181.5 77q106 0 180 -76t74 -182q0 -102 -77 -177t-179 -75q-104 0 -180 73.5t-76 178.5z M377 1110q0 -51 34.5 -87t86.5 -36q49 0 83.5 37t34.5 86q0 51 -34.5 86t-85.5 35t-85 -35t-34 -86zM432 1110q0 66 64 66q65 0 65 -66q0 -68 -63 -68q-66 0 -66 68z" />
<glyph unicode="&#xb1;" horiz-adv-x="1746" d="M260 -41v279h1227v-279h-1227zM260 696v279h469v317h287v-317h471v-279h-471v-315h-287v315h-469z" />
<glyph unicode="&#xb6;" horiz-adv-x="1048" d="M10 1157q0 168 117 266q111 92 283 93h628v-148h-104v-1368h-205v1368h-143v-1368h-209v803q-160 8 -260 100q-106 96 -107 254z" />
<glyph unicode="&#xb7;" horiz-adv-x="743" d="M92 -369v2212h559v-2212h-559zM184 737q0 -82 53.5 -151.5t133.5 -69.5t137 72q51 67 51 149t-54 150.5t-134 68.5q-76 0 -131.5 -70.5t-55.5 -148.5zM236 737q0 61 37.5 114.5t97.5 53.5q63 0 100 -51t37 -117t-35 -114q-41 -55 -102 -56q-63 0 -101 56q-35 49 -34 114z " />
<glyph unicode="&#xbb;" horiz-adv-x="1226" d="M92 -369v2212h1043v-2212h-1043zM184 926l187 -326v-104l-185 -338h713l143 254v260l-143 254h-715zM283 215l145 266v135l-145 252h231l121 -213v-227l-121 -213h-231zM635 215l141 266v135l-141 252h231l119 -213v-227l-119 -213h-231zM692 446v201l27 -47v-104z" />
<glyph unicode="&#x401;" horiz-adv-x="1406" d="M92 -369v2212h1223v-2212h-1223zM184 0h1039v489h-574v52h525v409h-525v51h574v474h-187v264h-651v-264h-201v-1475zM246 61v1352h915v-350h-575v-176h526v-285h-526v-174h575v-367h-915zM446 1475v200h232v-200h-232zM741 1475v200h232v-200h-232z" />
<glyph unicode="&#x410;" horiz-adv-x="1251" d="M0 25v34q14 10 117 52q70 27 92 82q45 121 45 186q0 29 -37 49q-53 29 -74 55q-39 49 -39 156q0 113 71 196t181 83q6 0 8.5 40.5t10.5 79.5q49 244 49 312q0 47 -62 63q-88 25 -98 31l15 47h61q35 0 115 -15.5t123 -15.5q274 0 372 31l33 -35l-109 -55q-66 -35 -65 -103 q0 -59 29 -198q14 -68 41 -203l102 -616q10 -10 27 -35v-4q0 -96 82 -146q45 -25 116 -61l-32 -35q-33 18 -138 18q-41 0 -119.5 -5t-117.5 -5t-64 8q0 8 15 43q16 8 59 14.5t61.5 16.5t42 43t23.5 53q0 186 -148 412q-162 248 -335 248q-35 0 -35 -27q0 -37 68.5 -91 t68.5 -136q0 -45 -33 -100q-33 -61 -71 -76q-45 -12 -93 -23q-49 -18 -49 -76q0 -139 23 -186q14 -27 92 -51q68 -20 65 -70l-2 -8q-12 -2 -26 -2q-41 0 -121 16.5t-121 16.5q-35 0 -101.5 -12.5t-101.5 -12.5zM172 635q0 -102 82 -166l20 20l60 213q-18 -8 -54 -46t-67 -50 v41q57 96 102 121q29 17 29 68q0 8 -10 18q-162 -63 -162 -219zM354 449q57 2 101.5 47t44.5 102q0 37 -33 68t-72 41q-39 -147 -41 -258zM426 930q8 -16 72 -31q82 -20 86 -22q145 -70 280 -310q8 6 8 23q0 18 -9 47t-9 41q-16 131 -51 297q-47 229 -58 293q-2 27 -8 64.5 t-20.5 51t-50.5 13.5q-133 0 -152 -25q-51 -289 -88 -442z" />
<glyph unicode="&#x411;" horiz-adv-x="1019" d="M0 6q10 43 49 55q66 20 72 25q37 29 61 158q18 96 19 180v854q0 74 -31 100q-14 10 -76 29q-47 16 -74 51l29 33q152 -43 232 -43q106 0 294 16q248 20 297 23l29 -31q-59 -76 -121 -151q-49 -68 -75 -136q-33 -63 -5 -125q29 -66 86 -65q27 0 48.5 19.5t21.5 45.5 q0 53 -35 54q-18 0 -33 -35q-23 -41 -26 -47q-29 18 -29 47q0 35 24.5 61.5t59.5 26.5t58.5 -29.5t23.5 -66.5q0 -43 -34 -90t-72 -47q-80 0 -131 63q-37 47 -37 133q0 66 41 137q35 53 69 107q0 53 -133 53q-37 0 -153 -8q-63 -2 -162 -19q-27 -592 -27 -735l-2 -274 q2 -176 18 -266q113 -23 164 -23q84 0 174 23q109 27 152 73q31 35 70 107q41 80 41 117q0 25 -7.5 68.5t-9.5 62.5q-4 74 -101 161.5t-173 87.5t-150 -41q-88 -49 -88 -118q0 -37 33 -69t68 -32q23 0 51 27t28 47q0 49 -59 49q-6 0 -80 -67l-10 61q45 61 96 62q43 0 75 -34 t32 -77q0 -121 -133 -121q-66 0 -110 43t-44 111q0 102 63 147q45 33 189 78q18 4 37 4q72 0 143 -55q121 -92 160 -156q55 -86 55 -239q0 -166 -111.5 -276t-279.5 -110q-51 0 -153.5 6.5t-153.5 6.5q-35 0 -98.5 -16.5t-96.5 -16.5q-27 0 -49 6z" />
<glyph unicode="&#x412;" horiz-adv-x="987" d="M0 6q10 43 49 55q66 20 72 25q37 29 61 158q18 96 19 180v854q0 74 -31 100q-14 10 -76 29q-47 16 -74 51l29 33q152 -43 232 -43q41 0 118.5 10t118.5 10q145 0 262 -84q129 -94 129 -235q0 -217 -194 -311l-15 -17q139 -100 187 -176q55 -86 55 -239 q0 -166 -111.5 -276t-279.5 -110q-51 0 -153.5 6.5t-153.5 6.5q-35 0 -98.5 -16.5t-96.5 -16.5q-27 0 -49 6zM258 375q2 -176 18 -266q113 -23 164 -23q84 0 174 23q109 27 152 73q31 35 70 107q41 80 41 117q0 25 -7.5 68.5t-9.5 62.5q-4 74 -101 161.5t-173 87.5t-150 -41 q-88 -49 -88 -118q0 -37 33 -69t68 -32q23 0 51 27t28 47q0 49 -59 49q-6 0 -80 -67l-10 61q45 61 96 62q43 0 75 -34t32 -77q0 -121 -133 -121q-66 0 -110 43t-44 111q0 102 63 147q53 39 193.5 82t198.5 84q94 66 94 172q0 170 -135 236q-96 47 -287 47q-113 0 -135 -11 q-27 -592 -27 -735z" />
<glyph unicode="&#x413;" horiz-adv-x="1052" d="M0 16v31q23 29 104 41q70 10 89 80q33 121 36 297v659q0 12 -4 34t-4 32q0 16 4 48t4 48q0 76 -28 98q-16 12 -71.5 21.5t-78.5 28.5v45h311q223 -2 312 0q180 2 311 12q20 -20 19 -37q-41 -94 -170 -303q-59 -88 -117 -178q-39 -74 -39 -209q0 -170 102 -170q84 0 84 72 q0 39 -41 39q-12 0 -38.5 -29t-34.5 -33q-23 -2 -23 33q0 29 38 61.5t69 32.5q35 0 59.5 -36t24.5 -75q0 -51 -37 -91t-88 -40q-86 0 -140 64q-51 57 -51 145q0 106 39 193l94 180q111 233 111 240q0 49 -37 61q-19 6 -76 6q-70 0 -211 -14t-213 -8q-2 -63 -10 -490 q-6 -295 -6 -489q0 -55 -8 -76q2 -12 10 -127q4 -72 57 -109q14 -12 86 -30q53 -14 76 -49q-18 -16 -51 -17q-27 0 -82 11.5t-82 11.5q-20 0 -281 -31z" />
<glyph unicode="&#x414;" horiz-adv-x="1245" d="M-16 -352q0 41 24.5 70.5t63.5 29.5q31 0 58.5 -20.5t27.5 -49.5q0 -8 -5.5 -26.5t-5.5 -26.5q-49 61 -65 62q-35 0 -35 -39q0 -29 21.5 -49.5t50.5 -20.5q80 0 80 152q0 82 -39 131q-88 119 -121 176l8 31l141 -7q121 49 299 375q156 285 211 490q35 127 35 231 q0 111 -33 164q-45 76 -135 100q-82 25 -92 49q-2 16 16 37q174 -14 420 -12h303v-43q-23 -18 -76 -27.5t-69 -21.5q-29 -23 -29 -96q0 -14 4.5 -46t4.5 -49q0 -10 -4.5 -31.5t-4.5 -31.5v-999q0 -45 35 -89l84 7l29 -31q-47 -70 -91 -137.5t-57 -137.5q0 -63 23 -114 q31 -66 86 -66q27 0 49.5 19.5t22.5 44.5q0 55 -35 55q-20 0 -35 -35q-20 -41 -25 -47q-29 18 -28 47q0 35 23.5 60.5t58.5 25.5q37 0 59.5 -29.5t22.5 -66.5q0 -41 -33 -88t-74 -47q-80 0 -128 61.5t-52 145.5q-2 63 31 118q45 74 53 99q0 59 -146 59q-18 0 -54 -3t-54 -3 q-53 0 -156.5 3t-157.5 3h-120q-78 0 -103 -4q-66 -14 -65 -63q0 -23 16 -60q29 -59 43 -104q0 -256 -164 -256q-47 0 -79.5 41t-32.5 90zM330 57h624q23 25 21 101q-6 727 -14 1255q-53 -4 -106.5 13.5t-74.5 17.5q-29 0 -63 -14q-10 -4 -10 -9l26 -32q33 -43 66 -109 q14 -31 14 -98q0 -168 -74 -365q-141 -381 -409 -760z" />
<glyph unicode="&#x415;" horiz-adv-x="1038" d="M0 39q16 27 77.5 44t84.5 46q41 53 41 182v662q0 51 -8.5 149.5t-8.5 149.5q0 102 -51 125q-66 16 -133 33q0 61 53 61q23 0 66 -10.5t63 -12.5q203 -10 486 -10q51 0 151.5 11.5t149.5 11.5q18 -18 18 -39q0 -18 -115 -193q-139 -209 -215 -360q-114 -236 -114 -400 q0 -55 34.5 -95t90.5 -40q23 0 43 13.5t20 33.5q0 33 -28 45q-14 -10 -41 -30q-29 0 -48 16q-2 23 35 46.5t62 23.5q76 0 75 -86q0 -57 -37.5 -92t-97.5 -35q-84 0 -133 69q-43 59 -43 150q0 59 55 221l-14 21q-63 8 -207 8q-43 0 -43 -53l11 -590q14 -25 43 -25h321 q180 0 221 39q33 31 54 207q6 70 26 149q14 -4 27 -6l-4 -41q-10 -106 -11 -176q0 -8 33 -256l-733 21q-29 0 -86 -13.5t-86 -13.5q-70 0 -84 39zM256 1221q0 -328 33 -394h217q47 0 74 23q10 25 135 266q98 193 114 225q0 64 -106 64q-51 0 -154.5 -7t-154.5 -7 q-18 0 -56.5 3t-58.5 3q-33 0 -43 -23v-153z" />
<glyph unicode="&#x416;" horiz-adv-x="1865" d="M0 1456q6 -6 12 -6q2 2 2 6q0 6 -14 6q18 -29 84 -78q76 -53 96 -75q55 -63 193 -226q162 -186 162 -200q0 -25 -158 -359q-63 -147 -127 -293q-92 -164 -232 -190q0 -33 27 -59q86 29 354 18l31 12l14 35l-98 21q-47 10 -47 61q0 53 129 338t174 344q41 -18 126 -148.5 t85 -175.5q0 -109 -88 -108q-76 0 -76 57q0 41 21 41q16 0 59 -94q33 29 33 59q0 37 -21.5 67t-56.5 30q-41 0 -69.5 -31t-28.5 -72q0 -51 42 -86t93 -35q63 0 108 47.5t45 110.5q0 106 -147 311q-61 84 -278 338q-150 176 -150 209q0 47 39 66q6 4 84 22v8q0 41 -43 41 q-4 0 -62 -14q-47 -6 -131 -6q-29 0 -75 14q-53 14 -76 17q-33 -10 -35 -23zM694 -18q20 37 103 79q70 37 73 74q0 12 11 524l10 527q0 137 -37 176q-20 20 -147 55q6 20 12 62q27 -4 121 -19q80 -12 121 -12q23 0 65.5 7t65.5 7q29 0 49 -4q-2 -27 -78 -56.5t-84 -74.5 q-12 -63 -12 -121l-11 -848q-2 -127 15 -229q4 -25 73 -63q78 -43 95 -60q-37 -12 -82 -12q-18 0 -52 5t-51 5q-133 0 -260 -22zM954 473q0 106 150 311q61 84 278 338q150 176 150 209q0 47 -39 66q-8 4 -84 22v8q0 41 41 41q6 0 63 -14q45 -6 132 -6q29 0 78 14.5t71 16.5 q35 -10 37 -23q-6 -6 -12 -6q-2 2 -2 6q0 6 14 6q-18 -29 -84 -78q-76 -53 -96 -75q-55 -63 -193 -226q-162 -186 -162 -200q0 -25 158 -359q63 -147 127 -293q90 -164 231 -190q0 -33 -28 -59q-84 29 -354 18l-29 12l-15 35l97 21q49 10 49 61q0 53 -129 338t-174 344 q-41 -18 -126 -148.5t-85 -175.5q0 -109 88 -108q76 0 76 57q0 41 -21 41q-16 0 -59 -94q-35 29 -35 59q0 37 22.5 67t57.5 30q41 0 69.5 -31t28.5 -72q0 -51 -42 -86t-93 -35q-63 0 -109.5 47.5t-46.5 110.5z" />
<glyph unicode="&#x417;" horiz-adv-x="888" d="M0 340q0 72 33 152q37 94 137 94q63 0 110.5 -42t47.5 -104q0 -31 -39 -71.5t-68 -40.5q-33 0 -64.5 31.5t-31.5 62.5q0 -8 14 51h39q23 -57 51 -57q18 14 19 41q0 49 -51 49q-53 0 -85 -41t-32 -96q0 -119 94 -203t213 -84q104 0 193 61q100 72 151 207q31 80 31 185 q0 291 -240 337q-41 -2 -51 -38q-4 -10 -6 -72q0 -25 -33 -25q-53 0 -53 80q0 76 47 113q6 2 14 4l285 471l-14 18h-224q-178 0 -202 -14q-45 -25 -45 -66q0 -23 10 -57q12 -41 14 -57q8 -94 8 -142q0 -49 -8 -92q-49 -59 -121 -59q-43 0 -85 32.5t-42 75.5q0 33 31 66 t64 33q31 0 71 -43l-18 -62l-31 27h-22l-15 -31q25 -33 51 -33q66 0 66 125q0 92 -51 197q-29 57 -107 174q262 -20 465 -20q90 0 287 20q12 -6 41 -29l-299 -512q150 -27 223 -176q57 -121 57 -288q0 -139 -32 -216q-66 -150 -187 -227q-109 -68 -239 -67q-94 0 -187.5 51 t-144.5 131q-39 125 -39 176z" />
<glyph unicode="&#x418;" horiz-adv-x="1193" d="M0 39q8 14 38 28.5t60 30.5q70 37 74 74q0 10 10 514l11 518q0 135 -37 172q-20 20 -144 54q6 20 13 61q27 -4 116 -18q78 -12 117 -13q23 0 65 7.5t64 7.5q27 0 47 -5q-2 -25 -75.5 -54.5t-82.5 -72.5q-10 -66 -12 -120l-10 -832q-2 -127 14 -225q4 -27 72 -64 q78 -43 92 -59q-4 -2 -16.5 -16.5t-30.5 -14.5q-4 0 -38 11.5t-44 13.5q-35 4 -51 4q-35 0 -107 -12q-94 -16 -104 -17q-12 -2 -20.5 13.5t-20.5 13.5zM272 502q0 106 144 305q61 84 272 334q145 174 146 205q0 47 -39 65q-8 4 -82 21v8q0 41 41 41q4 0 61 -15q43 -6 127 -6 q27 0 75 14.5t70 16.5q33 -10 35 -23q-6 -6 -12 -6q-2 2 -2 6q0 6 14 7q-18 -31 -82 -74q-40 -30 -67 -53q-20 -438 -4 -1192q2 -66 168 -97q0 -33 -25 -59q-84 29 -344 18l-29 13l-14 35l94 18q47 10 47 61q23 254 23 541q0 248 -17 549l-112 -133q-88 -100 -178 -201 q-106 -125 -164 -211q-84 -129 -84 -174q0 -106 84 -106q76 0 76 57q0 39 -21 39q-16 0 -59 -92q-31 29 -31 59q0 35 20.5 64.5t55.5 29.5q39 0 66.5 -30.5t27.5 -69.5q0 -51 -40 -86t-91 -35q-61 0 -105.5 47t-44.5 109z" />
<glyph unicode="&#x419;" horiz-adv-x="1193" d="M0 39q8 14 38 28.5t60 30.5q70 37 74 74q0 10 10 514l11 518q0 135 -37 172q-20 20 -144 54q6 20 13 61q27 -4 116 -18q78 -12 117 -13q23 0 65 7.5t64 7.5q27 0 47 -5q-2 -25 -75.5 -54.5t-82.5 -72.5q-10 -66 -12 -120l-10 -832q-2 -127 14 -225q4 -27 72 -64 q78 -43 92 -59q-4 -2 -16.5 -16.5t-30.5 -14.5q-4 0 -38 11.5t-44 13.5q-35 4 -51 4q-35 0 -107 -12q-94 -16 -104 -17q-12 -2 -20.5 13.5t-20.5 13.5zM272 502q0 106 144 305q61 84 272 334q145 174 146 205q0 47 -39 65q-8 4 -82 21v8q0 41 41 41q4 0 61 -15q43 -6 127 -6 q27 0 75 14.5t70 16.5q33 -10 35 -23q-6 -6 -12 -6q-2 2 -2 6q0 6 14 7q-18 -31 -82 -74q-40 -30 -67 -53q-20 -438 -4 -1192q2 -66 168 -97q0 -33 -25 -59q-84 29 -344 18l-29 13l-14 35l94 18q47 10 47 61q23 254 23 541q0 248 -17 549l-112 -133q-88 -100 -178 -201 q-106 -125 -164 -211q-84 -129 -84 -174q0 -106 84 -106q76 0 76 57q0 39 -21 39q-16 0 -59 -92q-31 29 -31 59q0 35 20.5 64.5t55.5 29.5q39 0 66.5 -30.5t27.5 -69.5q0 -51 -40 -86t-91 -35q-61 0 -105.5 47t-44.5 109zM367 1702q12 39 44.5 62.5t71.5 9.5q35 -16 52 -27 q16 -51 4 -86q-8 -23 -34 -36t-48 -7q-35 12 -35 49q0 31 37 51l30 -10q8 -16 11 -45l18 39q-23 41 -61 41q-41 0 -60 -55q-12 -39 13 -72q43 -27 73 -33q37 -12 66 -4q139 -10 172 4q25 10 41 48t4 63q-12 33 -47 49q-37 -16 -57 -47l16 -21q18 18 24 29q31 12 46 -21 q10 -27 -17 -63q-27 -2 -57 12q-45 20 -45 58q0 14 8 32q37 74 117 43q37 -16 53 -53q25 -57 0 -104q-23 -45 -80 -70q-41 -18 -192 -6q-35 0 -58 2q-82 14 -105.5 62.5t-4.5 105.5z" />
<glyph unicode="&#x41a;" horiz-adv-x="1193" d="M0 0q20 37 100 80q70 37 74 74q0 12 10 520l11 526q0 137 -37 174q-20 20 -146 56q6 20 13 61q27 -4 118 -18q78 -12 119 -13q23 0 65 7.5t64 7.5q29 0 49 -5q-4 -27 -77.5 -56.5t-81.5 -72.5q-12 -66 -13 -120l-10 -846q-2 -127 14 -228q4 -25 72 -63q78 -43 94 -59 q-37 -12 -82 -13q-16 0 -50 5.5t-50 5.5q-131 0 -256 -23zM276 489q0 106 146 310q61 84 274 338q147 174 148 206q0 49 -39 68q-6 2 -82 21v8q0 41 41 41q4 0 61 -15q45 -6 129 -6q29 0 77 14.5t71 16.5q33 -10 35 -23q-6 -6 -13 -6q-2 2 -2 6q0 6 15 7q-18 -29 -82 -78 q-74 -53 -94 -76q-55 -63 -191 -223q-158 -187 -158 -201q0 -25 154 -356q63 -145 125 -291q90 -164 227 -191q0 -33 -26 -59q-84 29 -349 18l-28 13l-15 35l95 20q49 10 49 61q0 53 -127 336t-172 342q-39 -18 -123 -147t-84 -174q0 -109 86 -109q76 0 76 58q0 41 -21 41 q-16 0 -59 -95q-33 29 -33 60q0 37 21.5 66.5t56.5 29.5q41 0 68.5 -30.5t27.5 -71.5q0 -49 -41 -85t-92 -36q-63 0 -107.5 47t-44.5 110z" />
<glyph unicode="&#x41b;" horiz-adv-x="1062" d="M0 145q0 55 38 95.5t93 40.5q41 0 70.5 -32t29.5 -73q0 -57 -20 -57q-16 0 -43 51q-18 37 -41 37q-41 0 -41 -51q0 -82 96 -82q98 0 99 153q0 96 -109 359q-49 119 -49 258v4q0 33 3 90t3 82q0 82 53 174q27 51 109 156q55 72 299 116q193 37 328 37q80 0 67 -78 q-109 -8 -129 -59q-4 -8 -18 -168q0 -45 -9 -166q-6 -92 -6 -262v-543q0 -33 13 -47q0 -2 30 -30q35 -12 115 -50q12 -6 14 -24q2 -12 -2 -36t-4 -28q-37 0 -110.5 9.5t-112.5 9.5q-31 0 -92.5 -9.5t-93.5 -9.5l-17 17v32q6 6 101 50q86 39 86 266v862q0 104 -2 156 q-35 20 -89 20q-70 0 -206 -45q-43 -29 -88 -59q-78 -57 -97 -94q-53 -102 -53 -138q0 -51 -5 -136t-5 -122q0 -98 28 -176q29 -66 82 -199q41 -102 41 -219q0 -96 -47 -168q-55 -80 -147 -79q-61 0 -111.5 51t-50.5 114z" />
<glyph unicode="&#x41c;" horiz-adv-x="1599" d="M0 143q0 55 38 95.5t93 40.5q39 0 68.5 -32t29.5 -73q0 -10 -12 -35l-16 -33q-8 8 -35 62q-18 37 -39 37q-41 0 -41 -51q0 -82 94 -82q98 0 99 153q0 96 -108 364.5t-108 422.5q0 190 113 336q121 158 305 157q186 0 310 -184h22q109 184 270 184q199 0 312 -157 q102 -139 102 -347q0 -162 -63 -307q-41 -84 -121 -254q-61 -139 -62 -239q0 -139 115 -140q109 0 109 89q0 27 -19.5 51t-46.5 24q-39 0 -39 -32q0 -14 6 -41t6 -41q0 -8 -6 -21q-66 33 -65 94q0 41 32.5 68t75.5 27q51 0 81 -41t30 -95q0 -55 -51.5 -109t-106.5 -54 q-92 0 -143 71q-43 63 -43 160q0 100 118.5 383t118.5 434q0 152 -75 268q-86 135 -228 136q-115 0 -194 -64q-88 -68 -95 -180q-2 -47 -8 -166q-6 -90 -6 -260v-537q0 -74 41 -112q18 -10 82 -45q41 -23 41 -56q-37 0 -110.5 9.5t-110.5 9.5q-31 0 -92.5 -9.5t-92.5 -9.5 l-16 17v30q6 6 98 50q86 39 86 264v856q0 90 -96 145q-80 47 -178 47q-80 0 -203 -94q-25 -18 -67.5 -103t-42.5 -114q0 -270 75 -471q27 -66 82 -197q41 -100 41 -217q0 -96 -49 -166q-53 -80 -145 -79q-61 0 -110.5 51t-49.5 112z" />
<glyph unicode="&#x41d;" horiz-adv-x="1134" d="M0 29q8 33 77.5 56.5t91 71.5t21.5 312q0 12 -69.5 90t-69.5 162q0 176 139 305q-4 131 -4 203t4 84q-25 59 -98 92q-82 37 -92 53q12 16 12 33h70q20 0 66.5 -20.5t66.5 -20.5q41 0 115 12q92 14 119 19q-4 -18 -8.5 -36t-24.5 -28q-47 -18 -111 -59q-41 -61 -41 -193 q0 18 2 -51v-51q10 -12 37 -12q23 0 67 10t66 10q86 0 187 -53q123 -70 184 -166q8 -16 24 -45q6 -8 19 -14q18 166 18 311q0 190 -30 254q-18 33 -82 49t-92 53q31 31 49 31q33 0 94 -20.5t92 -20.5q27 0 180 31q-8 -8 -4 -19q6 -14 6 -16q0 -6 -6 -12q-43 -23 -102 -64 q-41 -47 -43 -151l-10 -959q0 -23 -4 -38l-5 -15q0 -4 25 -45q18 -31 31 -41q4 -4 57 -33q33 -20 45 -47q2 -2 4 -16q-2 -6 -14 -7q-23 0 -68 9.5t-67 9.5q-41 0 -124 -18.5t-126 -18.5q-18 0 -19 31q0 37 35 49q74 25 78 26q51 31 80 109v414q0 72 -76 168q-66 82 -139 127 q-14 12 -41 32q-86 53 -201 54q-113 0 -135 -41v-410l23 -39q225 27 225 174q0 43 -25.5 75t-66.5 32q-18 0 -47 -24.5t-29 -41.5q10 -18 65 -104h-51q-57 47 -57 114q0 104 123 105q66 0 108.5 -51t42.5 -119q0 -59 -51 -121.5t-108 -77.5q-8 -2 -134 -2l-18 -12 q8 -45 6 -102q-6 -131 -6 -101q0 -80 47 -121q12 -10 94 -53q53 -29 62 -72q-33 0 -95.5 9.5t-93.5 9.5q-80 0 -135 -12q-10 -2 -39 -17q-12 -8 -67 -8zM113 745q0 -29 51 -151h26v328q-31 -27 -54 -81.5t-23 -95.5z" />
<glyph unicode="&#x41e;" horiz-adv-x="888" d="M0 715q0 291 76 504q109 303 344 303q104 0 205 -74q94 -72 139 -172v-55q-86 115 -139 157q-86 70 -195 70q-72 0 -119 -27q-29 -18 -92 -82q-27 -29 -81 -201.5t-54 -219.5v-291q0 -182 82 -351q100 -201 264 -200q324 0 324 583q0 592 -262 592q-72 0 -115 -43 t-43 -112q0 -45 38 -91.5t83 -46.5q41 0 66.5 31t25.5 70q0 27 -24.5 44t-51.5 17q-10 0 -68 -33l-32 21q31 63 104 63q57 0 97 -39.5t40 -97.5q0 -49 -56 -95t-107 -46q-80 0 -130.5 60.5t-50.5 142.5q0 100 64.5 160.5t165.5 60.5q135 0 217 -129q37 -59 65 -156 q23 -84 43 -168q14 -49 15 -69v-238q0 -229 -150 -426q-116 -151 -233 -151q-248 0 -367 260q-88 193 -88 475z" />
<glyph unicode="&#x41f;" horiz-adv-x="1099" d="M0 14q37 14 82 35q86 39 100 107q0 6 2 170v260q0 82 9.5 245.5t9.5 243.5q0 162 -10 199q-27 98 -140 112q-14 8 -37 23v23q29 25 45 24q29 0 88.5 -11t90.5 -11q16 -53 12 -140l10 -10q164 203 318 203q193 0 315 -158q113 -145 113 -344q0 -143 -119 -420.5 t-119 -367.5q0 -143 102 -144q92 0 93 80q0 27 -35 64h-58l-6 -74l-26 -12q-31 27 -31 49q0 29 27.5 62.5t56.5 33.5q51 0 88 -37t37 -90q0 -57 -44.5 -103t-101.5 -46q-166 0 -165 194q0 125 107.5 393.5t107.5 417.5q0 174 -72 291q-88 137 -252 137q-156 0 -250 -119 q-82 -109 -86 -270l-10 -725q8 -16 10 -102q0 -66 37 -101q14 -12 82 -41q51 -25 72 -63q-41 0 -121 9t-121 9q-18 0 -57 -15t-58 -15h-78z" />
<glyph unicode="&#x420;" horiz-adv-x="954" d="M0 33l33 26q66 4 104 95q33 72 33 149l14 805q0 252 -71 297q-14 8 -111 37l16 49q158 -31 234 -31q43 0 132 10.5t134 10.5q156 0 268 -88q123 -96 123 -248q0 -154 -149 -252l-281 -135q-147 -74 -147 -170q0 -47 24 -84q29 -43 74 -43q35 0 61.5 25.5t26.5 60.5 q0 57 -41 57q-29 0 -39 -23.5t-18 -48.5q-39 -2 -39 31q0 37 29.5 65.5t66.5 28.5q104 0 105 -110q0 -66 -40 -106t-106 -40q-170 0 -170 199q0 121 142 197l262 127q143 86 143 221q0 152 -100 213q-78 49 -240 49q-16 0 -49 2t-49 2q-129 0 -129 -76v-1097 q0 -145 178 -177v-43q0 -18 -31 -18q-25 0 -78 15.5t-82 15.5q-39 0 -108 -13l-107 -18z" />
<glyph unicode="&#x421;" horiz-adv-x="862" d="M0 575v259q0 217 109 423q127 246 323 246q41 0 127 -58.5t111 -58.5q35 0 78 37q51 43 73 50v-48l-311 -436q-205 -285 -205 -463q0 -172 127 -172q102 0 103 127q0 18 -18.5 33.5t-37.5 15.5q-70 0 -69 -81v-29q-51 -6 -52 39q0 53 34 89t87 36q100 0 101 -115 q0 -66 -42 -117t-106 -51q-180 0 -180 236q0 115 88 270q53 88 162 268q88 147 88 213q0 129 -152 129q-215 0 -305 -280q-57 -180 -57 -457q0 -616 356 -617q145 0 215 119q57 96 58 250q0 121 -76 236q8 16 28 16q49 0 84 -121q27 -98 27 -162q0 -172 -86 -286 q-96 -125 -264 -125q0 -10 -19 -10q-182 0 -299 213q-100 182 -100 382z" />
<glyph unicode="&#x422;" horiz-adv-x="1325" d="M0 844q0 43 24.5 73.5t65.5 30.5q31 0 60.5 -21.5t29.5 -49.5q0 -10 -6 -28t-6 -28q-49 63 -68 64q-37 0 -37 -41q0 -29 24 -49.5t52 -20.5q82 0 82 154q0 221 -174 532l8 31l621 -21q131 0 528 21l29 -31q-201 -324 -201 -512q0 -66 25 -119q31 -66 88 -65 q29 0 51.5 19.5t22.5 45.5q0 55 -35 56q-23 0 -37 -35q-23 -43 -27 -49q-29 18 -28 49q0 35 24.5 61.5t61.5 26.5t60.5 -29.5t23.5 -68.5q0 -43 -35 -92.5t-76 -49.5q-82 0 -135 68q-49 61 -49 145t52 234.5t52 204.5q0 78 -123 77q-18 0 -55 -3t-55 -3q-84 0 -164 6v-1249 q0 -18 24.5 -49t42.5 -43q6 -4 76 -16q41 -6 45 -58q-41 0 -120.5 4t-120.5 4q-90 0 -222 -20q2 6 2 70l127 28q57 23 60 113l12 1216h-211q-188 0 -188 -88q0 -53 42 -179t42 -187q0 -264 -168 -264q-51 0 -84 42t-33 93z" />
<glyph unicode="&#x423;" horiz-adv-x="1202" d="M0 1458q0 20 27 49q31 -6 116 -34q59 -18 133 -19q20 0 62.5 17.5t64.5 17.5q18 0 35 -8q0 -35 -26 -58q-70 -2 -107 -43q53 -188 387 -917q6 -12 29 -2q96 209 157.5 453.5t61.5 426.5q0 41 -70 74q-88 43 -96 51l29 31h63q18 0 54 -14.5t51 -14.5q29 0 87 9.5t87 9.5 q2 -37 -33 -51q-45 -18 -57 -37q-16 -27 -29 -117q-55 -381 -207 -750q-218 -532 -497 -532q-135 0 -224.5 93t-89.5 229q0 111 53 190q61 92 168 92q63 0 111.5 -51t48.5 -115q0 -57 -32.5 -100t-88.5 -43q-45 0 -75.5 26.5t-30.5 69.5q0 37 47 78h59q0 -2 -24 -41 q-18 -27 -19 -41q0 -23 37 -37q63 37 64 88q0 37 -26 64.5t-60 27.5q-160 0 -160 -202q0 -111 63.5 -177.5t171.5 -66.5q74 0 119 22q115 57 166 134q27 39 53 88q0 47 -8 63q-162 371 -182 410q-43 86 -135 264q-27 68 -84 203q-55 127 -142 149q-33 10 -102 41z" />
<glyph unicode="&#x424;" horiz-adv-x="1757" d="M-4 1008q0 109 45 231q63 182 178 217q63 20 125 21q168 0 309 -156q86 -94 152 -227v239q0 43 -64.5 70t-97.5 39q0 20 27 49q109 -41 188 -41q33 0 90 12q76 16 90 19q4 -18 19 -35q-57 -25 -113 -51q-66 -39 -65 -142l-2 -141q63 121 141 209q143 156 311 156 q62 -1 125 -21q113 -35 178 -217q45 -123 45 -231q0 -33 -4 -64q-18 -131 -26 -164l-76 -229q-43 -82 -78 -129q-170 -283 -336 -283q-94 0 -168 63.5t-74 157.5q0 86 55.5 156t139.5 70q27 0 55 -11q49 -14 89 -75.5t24 -110.5q-16 -55 -67.5 -81.5t-106.5 -8.5 q-72 23 -82 94l39 8q45 -49 55 -51q27 -8 53 0q31 10 39 35q12 39 -3 77t-54 50q-43 14 -95 -18.5t-67 -77.5q-20 -68 8 -123q45 -88 160 -88q215 2 375 504q68 207 67 350q0 250 -200 315q-37 10 -74 10q-137 0 -270 -153q-111 -131 -160 -283l-21 -63l-6 -619 q6 -12 13 -86q4 -55 67 -90q92 -47 103 -59l-4 -11l2 5v2q4 0 4 -9q0 -8 -17 -8q-35 0 -106.5 6.5t-106.5 6.5q-109 0 -172 -23l-28 25v34q92 23 133 62q49 47 49 135v633q-16 37 -27 59q-49 152 -160 283q-133 154 -272 153q-37 0 -74 -10q-199 -66 -198 -315 q0 -145 65 -350q162 -504 377 -504q31 0 62 10q70 23 98.5 78t5.5 123q-14 45 -65.5 77.5t-94.5 18.5q-63 -20 -63 -92q0 -18 6 -35q8 -25 39 -35q27 -8 53 0q10 2 55 51l37 -8q-8 -72 -80 -94q-55 -18 -106 8.5t-70 81.5q-14 47 27 109q55 88 143 88q63 0 112.5 -43 t69.5 -107q12 -39 13 -76q0 -156 -166 -208q-39 -12 -78 -13q-166 0 -336 283q-78 127 -78 129l-73 229q-10 33 -27 164q-4 31 -4 64z" />
<glyph unicode="&#x425;" horiz-adv-x="1290" d="M0 29v43q41 12 85 27.5t78 40t62 75.5q63 111 172 322q145 276 146 299q0 6 -74 125q-80 127 -90 147q-45 98 -76 147q-49 80 -113 125q-31 23 -147 47v50q174 -31 244 -31q29 0 83 15.5t83 15.5q18 0 24 -13h23q-23 -27 -64 -47q-33 -18 -71 -39q8 -88 90 -231 q35 -61 127 -221h2l8 6q16 25 135 256q80 156 156 239q55 59 147 60q53 0 98.5 -34t45.5 -85q0 -33 -32 -67.5t-65 -34.5q-27 0 -60.5 29.5t-33.5 56.5q0 25 35 57q10 -29 41 -78q49 12 49 47q0 55 -61 56q-72 0 -246 -260q-166 -250 -172 -338q49 -82 172 -299 q33 -66 98 -195q123 -242 313 -268l2 -11q1 -43 -36 -43q-35 0 -104.5 11.5t-104.5 11.5q-27 0 -215 -33v62q145 39 145 80q0 45 -53 122q-27 37 -78 115q-4 25 -18 76q-12 31 -79 144.5t-83 125.5l-156 -299q-117 -227 -117 -284q0 -41 56 -60q84 -31 88 -33l2 -10 q0 -39 -37 -39q-29 0 -84 16.5t-84 16.5q-80 0 -227 -43z" />
<glyph unicode="&#x426;" horiz-adv-x="1081" d="M-2 453q0 180 72 354q10 14 133 256q72 137 71 240q0 68 -36.5 111.5t-104.5 43.5t-67 -78q0 -29 16 -57h18q20 18 58 80q33 -35 32 -55q0 -33 -32.5 -66t-65.5 -33q-94 0 -94 127q0 145 166 146q80 0 131 -84q43 -72 43 -156q0 -92 -66 -233q-41 -88 -122 -269 q-63 -154 -64 -297q0 -160 82 -286q94 -143 248 -144q150 0 254 125q98 117 98 271v862q0 18 -26.5 65t-41 58.5t-71.5 15.5q-29 23 -29 43q0 18 33 18t98.5 -19t97.5 -38q0 -51 7.5 -153.5t7.5 -153.5v-420q0 -55 -5 -165.5t-5 -166.5q0 -176 12 -237q6 -35 26 -49 q43 -33 166 -37q2 -14 -2 -45l4 -4q-2 -2 -6 -9v-6q-4 -2 -6 -2q-39 -61 -92 -125q-63 -76 -90 -112q-18 -72 -19 -84q0 -16 7 -31q31 -66 88 -66q29 0 51 19.5t22 46.5q0 55 -37 55q-20 0 -34 -35q-23 -43 -27 -49q-29 18 -29 49q0 35 25 61.5t59 26.5q37 0 61.5 -29.5 t24.5 -68.5q0 -43 -34.5 -92t-75.5 -49q-82 0 -133 65q-41 51 -25 148q10 47 74.5 113.5t77.5 109.5q0 27 -27 31q-18 2 -45 2q-61 -2 -70 -2v6q-4 0 -12 2q10 51 10 145q0 29 -4 58q-39 -59 -92 -123q-29 -33 -117 -72t-133 -39q-193 0 -315 150q-119 139 -119 336z" />
<glyph unicode="&#x427;" horiz-adv-x="1064" d="M0 1333q0 35 14 78q25 76 121 96q82 18 158 -7t76 -150q0 -111 -82 -246q-70 -150 -84 -191q-23 -61 -19 -116q18 -111 86 -203q100 -135 265 -135q102 0 225 53v834q0 43 -68 69q-33 14 -98 39q0 23 29 51q111 -43 190 -43q33 0 90 15q76 16 92 18q4 -18 19 -37 q-57 -25 -115 -51q-66 -39 -65 -143l-11 -996q6 -12 13 -88q4 -53 52 -78.5t93 -48.5q-14 -18 -20 -43q-31 2 -74 6q-72 6 -109 7q-111 0 -176 -23l-29 25v34q94 23 136 62q51 47 51 137v174q-133 -55 -246 -55q-184 0 -299 147q-82 102 -102 234q-10 25 -11 53 q0 84 115 307q90 115 90 221q0 88 -51 107q-66 20 -117 0q-53 -20 -73 -84q-6 -14 -7 -29q0 -37 43 -55q35 -14 74 -6l6 16q-12 25 -57 80q43 20 61 14q33 -10 53.5 -52t10.5 -73q-20 -59 -84 -61q-29 0 -68 14q-98 33 -98 123z" />
<glyph unicode="&#x428;" horiz-adv-x="1368" d="M4 467q0 178 70 348q10 14 131 252q70 135 69 236q0 66 -35.5 108.5t-101.5 42.5q-68 0 -67 -76q0 -27 16 -55h18q20 18 58 76q33 -33 33 -51q0 -35 -33 -67t-66 -32q-92 0 -92 125q0 143 164 144q78 0 127 -82q43 -72 43 -154q0 -92 -64 -229q-41 -86 -120 -262 q-63 -152 -64 -293q0 -199 74 -314q68 -102 164 -102q94 0 161 98q72 106 72 283v848q0 16 -25.5 63t-40 57.5t-71.5 14.5q-27 23 -27 43q0 18 31 18q33 0 97.5 -19.5t95.5 -37.5q0 -49 7 -149.5t7 -151.5v-412q0 -53 -5 -161.5t-5 -163.5q0 -6 2 -15h4q2 -150 61 -229 q51 -74 133 -74q98 0 178 103.5t80 265.5v848q0 16 -26.5 63t-39.5 57.5t-71 14.5q-27 23 -26 43q0 18 30 18q33 0 97.5 -19.5t95.5 -37.5q0 -49 7 -149.5t7 -151.5v-412q0 -53 -5 -161.5t-5 -163.5q0 -172 12 -234q6 -33 27 -49q43 -31 162 -35q2 -10 -5 -63 q-59 -19 -260 -11q10 51 11 144q0 29 -4 55q-123 -215 -281 -215q-160 0 -217 225q-39 -102 -128 -168.5t-183 -66.5q-119 0 -191 106q-86 125 -86 367z" />
<glyph unicode="&#x429;" horiz-adv-x="1402" d="M0 453q0 180 72 352q8 16 131 256q72 137 71 237q0 68 -36.5 112t-104.5 44t-67 -76q0 -31 16 -59h18q20 18 60 80q33 -33 33 -56q0 -33 -33 -65.5t-68 -32.5q-92 0 -92 129q0 143 166 144q78 0 129 -84q43 -72 43 -156q0 -92 -64 -231q-43 -88 -122 -267 q-66 -156 -66 -297q0 -203 76 -317q68 -104 166 -105q96 0 164 99q74 109 73 289v858q0 18 -26.5 65t-41 58.5t-71.5 15.5q-27 23 -27 43q0 18 31 18q33 0 98.5 -19.5t96.5 -37.5q0 -51 7 -152.5t7 -152.5v-420q0 -53 -5 -163.5t-5 -166.5q0 -6 2 -14h4q4 -152 63 -234 q53 -74 133 -73q102 0 179 100q86 109 86 275v858q0 18 -27 65t-41 58.5t-74 15.5q-27 23 -26 43q0 18 30 18q35 0 100.5 -19.5t96.5 -37.5q0 -51 7 -152.5t7 -152.5v-420q0 -53 -5 -163.5t-5 -166.5q0 -176 12 -235q6 -35 27 -51q43 -31 166 -37q2 -14 -2 -43l4 -4 q-2 -2 -6 -11v-6h-4q-41 -61 -94 -125q-61 -76 -91 -112q-18 -70 -18 -82q0 -18 6 -33q31 -66 90 -66q27 0 49.5 19.5t22.5 46.5q0 55 -35 55q-20 0 -35 -35q-25 -43 -28 -49q-29 18 -29 49q0 37 24.5 64t61.5 27t60.5 -31t23.5 -70q0 -41 -35 -90t-74 -49q-84 0 -135 65 q-41 51 -22 148q8 45 72.5 111.5t76.5 107.5q0 27 -26 33q-20 0 -43 2q-63 -2 -72 -2v6h-10q10 51 10 147q0 29 -4 56q-127 -219 -287 -219q-162 0 -219 229q-39 -104 -129 -172t-186 -68q-121 0 -195 109q-86 125 -86 373z" />
<glyph unicode="&#x42a;" horiz-adv-x="1243" d="M0 1073q0 33 29.5 65.5t62.5 32.5q31 0 72 -43l-19 -61l-30 27h-23l-12 -31q23 -31 49 -31q63 0 64 123q0 90 -50 193q-12 25 -80 125q12 14 21 30q129 -8 434 0q-2 -57 -4 -164l-27 -694l-2 -280q2 -182 19 -275q115 -23 166 -22q88 0 178 22q113 29 158 76 q31 35 71.5 113.5t40.5 115.5q0 25 -8 66q-8 49 -8 67q-6 76 -105.5 166t-177.5 90t-153 -41q-88 -51 -88 -122q0 -37 32.5 -70t69.5 -33q20 0 50 27.5t30 48.5q0 51 -60 51q-6 0 -82 -70l-10 62q45 63 99 63q43 0 75.5 -34.5t32.5 -77.5q0 -123 -135 -123q-68 0 -113 44 t-45 112q0 104 66 151q45 35 192 80q16 6 37 6q74 0 148 -57q123 -96 163 -160q55 -88 56 -246q0 -170 -114 -282.5t-286 -112.5q-53 0 -158.5 6t-156.5 6q-35 0 -100.5 -16t-100.5 -16q-27 0 -49 6q10 45 51 57q66 20 72 25q41 29 66 159q18 100 18 187v874q0 96 -33 123 q-45 29 -98 29q-76 0 -76 -72q0 -20 12.5 -58t12.5 -55q8 -92 8 -139q0 -49 -8 -90q-49 -59 -119 -59q-43 0 -84 32.5t-41 73.5z" />
<glyph unicode="&#x42b;" horiz-adv-x="1349" d="M0 16q12 18 37 27q68 20 72 25q41 29 63 159q18 100 18 185v874q0 76 -30 103q-14 10 -78 30q-47 14 -76 51l31 33q154 -43 237 -43q12 0 66.5 14.5t83.5 18.5q33 -4 33 -35q0 -23 -17 -33q-88 -12 -112 -22q-49 -20 -49 -55q-25 -565 -25 -705l-2 -281q2 -180 18 -272 q115 -23 166 -22q86 0 178 22q111 27 156 76q31 35 70 108q43 82 43 119q0 25 -7.5 70t-9.5 63q-6 78 -105 168t-175 90q-80 0 -154 -43q-88 -49 -88 -123q0 -37 32 -69.5t70 -32.5q20 0 50 27.5t30 48.5q0 51 -59 51q-6 0 -82 -70l-10 62q45 63 98 63q43 0 76 -33.5 t33 -78.5q0 -123 -136 -123q-70 0 -113.5 44t-43.5 111q0 104 65 154q45 33 193 78q100 -8 178 -49q125 -92 168 -162q55 -88 55 -246q0 -170 -113.5 -281.5t-283.5 -111.5q-53 0 -158.5 6t-159.5 6q-33 0 -98 -16t-100 -16q-12 0 -25 2q-2 18 -10 34zM848 20v35 q94 23 135 62q49 47 49 137v1085q0 41 -65 70q-33 12 -99 39q0 20 29 49q109 -41 188 -41q33 0 91 12q76 16 92 19q4 -18 18 -35q-57 -25 -115 -51q-66 -41 -65 -144l-10 -993q6 -12 12 -88q4 -55 45 -76q16 -12 34.5 -25.5t32 -8t38 -11t24.5 -32.5q0 -10 -16 -17 q-8 -2 -107 6q-72 6 -108 6q-109 0 -174 -22z" />
<glyph unicode="&#x42c;" horiz-adv-x="1001" d="M0 16q12 18 37 27q68 20 72 25q41 29 63 159q18 100 18 185v874q0 76 -30 103q-14 10 -78 30q-47 14 -76 51l31 33q154 -43 237 -43q12 0 66.5 14.5t83.5 18.5q33 -4 33 -35q0 -23 -17 -33q-88 -12 -112 -22q-49 -20 -49 -55q-25 -565 -25 -705l-2 -281q2 -180 18 -272 q115 -23 166 -22q86 0 178 22q111 27 156 76q31 35 70 108q43 82 43 119q0 25 -7.5 70t-9.5 63q-6 78 -105 168t-175 90q-80 0 -154 -43q-88 -49 -88 -123q0 -37 32 -69.5t70 -32.5q20 0 50 27.5t30 48.5q0 51 -59 51q-6 0 -82 -70l-10 62q45 63 98 63q43 0 76 -33.5 t33 -78.5q0 -123 -136 -123q-70 0 -113.5 44t-43.5 111q0 104 65 154q45 33 193 78q100 -8 178 -49q125 -92 168 -162q55 -88 55 -246q0 -170 -113.5 -281.5t-283.5 -111.5q-53 0 -158.5 6t-159.5 6q-33 0 -98 -16t-100 -16q-12 0 -25 2q-2 18 -10 34z" />
<glyph unicode="&#x42d;" horiz-adv-x="858" d="M0 1430v47q23 -6 74 -50q43 -35 78 -34q23 0 108.5 57t126.5 57q195 0 324 -243q106 -207 106 -422v-260q0 -199 -98 -379q-25 -45 -82 -94q-104 -92 -236 -109q-166 0 -262 125q-88 113 -88 285q0 63 29 161q35 121 84 121q18 0 26 -16q-76 -115 -75 -234 q0 -156 57 -252q72 -117 215 -116q354 0 354 614q0 86 -6 164h-278q111 -182 110 -307q0 -236 -180 -236q-63 0 -105 51.5t-42 116.5q0 115 100 115q53 0 87 -36t34 -89q0 -45 -51 -39v29q0 82 -70 82q-18 0 -36.5 -15.5t-18.5 -34.5q0 -125 102 -124q127 0 127 170 q0 178 -205 460zM231 1292q0 -63 86 -211q68 -111 101 -166h313q-57 506 -350 506q-150 0 -150 -129z" />
<glyph unicode="&#x42e;" horiz-adv-x="1271" d="M0 33v35q92 20 133 59q49 47 49 137v539h-84v63q25 -2 84 -4v475q0 41 -65 68q-31 12 -97 39q0 20 29 49q106 -41 187 -41q33 0 88 12q76 16 92 19q4 -18 18 -35q-57 -25 -112 -51q-66 -39 -66 -142l-4 -395q57 -2 131 -4q29 399 170 539q117 113 246 112 q29 0 108.5 -30.5t104 -52t61.5 -74.5q41 -59 41 -86q0 -29 -27 -50q-39 47 -118 140q-72 78 -158 78q-186 0 -270 -248q-47 -141 -56 -328q182 0 424 18q2 -6 6 -16q-66 -100 -92 -151q-61 -129 -61 -203q0 -117 76 -109q27 0 49 31l-13 31h-22l-31 -27l-16 62q39 39 69 38 q33 0 63 -30.5t30 -63.5q0 -41 -41 -73.5t-84 -32.5q-68 0 -117 59q-18 37 -18 82q0 27 8 72q8 55 10 71.5t12 55.5q31 59 31 88q0 43 -63 37q-33 2 -64 4q-61 4 -131 4h-25v-19q0 -322 27 -428q35 -131 110.5 -207.5t163.5 -76.5q115 0 201 129q139 209 139 483 q0 176 -43 301q-63 186 -202 186l-4 64q156 0 253 -203q80 -168 80 -344q0 -332 -110 -502q-18 -27 -88 -98q-53 -57 -88 -72.5t-109 -15.5q-231 0 -346 217q-92 172 -92 428q0 84 4 158h-129l-6 -529q6 -14 12 -88q4 -45 37 -69q8 -6 74 -39q14 2 38.5 -14.5t24.5 -30.5 q0 -10 -18 -15q-35 0 -106.5 6.5t-106.5 6.5q-106 0 -172 -23z" />
<glyph unicode="&#x42f;" horiz-adv-x="1017" d="M-227 -227q-8 59 24 121q35 70 94 69q39 0 73 -28.5t42 -65.5q14 -51 -14 -100q-14 -23 -33 -23q-16 0 -35 14l15 27q18 31 18 55q0 33 -37 56q-16 10 -41 6q-27 -6 -37 -21q-27 -47 -26 -84q0 -53 55 -84q33 -20 66 -20q74 0 137 108q72 123 71 381q0 41 -8 122t-8 122 q0 125 68 234q75 120 200 149q-115 53 -180 80q-80 47 -125 94q-63 68 -63 152q0 178 127 278q117 92 301 92q45 0 138 -11t140 -11q31 0 232 22l12 -51q-88 -29 -121 -49q-55 -39 -55 -111v-1003q0 -76 31 -141q39 -80 106 -80q37 -20 39 -23v-47q-6 0 -21.5 -6t-25.5 -6 q-27 0 -102.5 20.5t-116.5 20.5q-31 0 -91.5 -15.5t-91.5 -15.5q-16 12 -16 27q0 37 111 79q94 47 94 103v1028q0 160 -14 176q-20 27 -173 27q-154 0 -264 -49q-145 -66 -145 -203q0 -166 153 -248q248 -98 287 -115q152 -68 152 -217q0 -86 -48.5 -139t-105.5 -53 q-70 0 -121 37q-57 41 -57 108q0 51 33 94t84 43q43 0 78.5 -28.5t35.5 -71.5q0 -31 -20 -49q-8 8 -39 52t-41 44q-25 0 -57 -37q-2 -12 -2 -26q0 -100 90 -101q109 0 108 137q0 88 -71 132q-41 16 -84 16q-121 0 -215 -117q-86 -109 -74 -209q16 -141 14 -315 q-2 -180 -96 -342q-86 -145 -188 -145q-61 0 -108.5 37.5t-57.5 97.5z" />
<glyph unicode="&#x430;" horiz-adv-x="563" d="M0 250q0 106 67.5 161.5t178.5 55.5q31 0 114 -55q29 27 29 53q0 68 -35 123q-41 63 -104 63h-76q-47 -6 -43 -39q2 -18 2 -30q0 -59 -41 -60q-23 0 -67 21q-14 -2 -15 26q0 66 84 105q63 31 139 31q207 0 207 -263q0 -43 -7 -130t-7 -130q0 -88 29 -112q16 8 63 4 q19 -7 19 -58l-78 -12q-27 -4 -58 10q-8 4 -25.5 16.5t-25.5 12.5q-25 0 -72 -21.5t-71 -21.5q-92 0 -152 82q-55 74 -55 168zM66 250q0 -74 44 -129t117 -55q152 -1 152 206q0 61 -45 100.5t-107 39.5q-66 0 -113.5 -49.5t-47.5 -112.5z" />
<glyph unicode="&#x431;" horiz-adv-x="559" d="M0 389v66q10 18 10 39v2q2 6 4 17t5.5 16.5t5.5 10.5t5 14t9 32q0 2 2 4q8 10 12 13t6 5v-6q0 4 4 10q37 27 74 54.5t94 27.5q14 0 31 -4l-258 397q6 14 12.5 24.5t16.5 10.5q45 0 137 -6t137 -6q18 0 55 3t54 3q72 0 110 -31q-98 -90 -98 -192q0 -37 37 -55 q0 14 -7 41.5t-7 42.5q0 12 2 20q14 12 41 12q18 0 45.5 -29.5t27.5 -50.5q0 -27 -26.5 -57.5t-53.5 -30.5q-57 0 -94 51.5t-37 112.5q0 14 7.5 41t7.5 41q0 10 -2 19h-226q-18 -18 -18 -27q154 -221 285 -418q74 -82 73 -284q0 -119 -65 -213q-74 -109 -187 -109t-174 106 q-35 61 -43 89q-14 57 -14 194zM53 365q0 -23 15 -58q137 106 327 230l-28 41q-80 53 -131 53q-33 0 -46 -4q-39 -27 -92 -72q-45 -66 -45 -190zM76 270l10 -28q31 23 168 116q116 78 143 121q-53 -16 -156.5 -105t-164.5 -104zM84 154q57 -90 137 -91q104 0 158 107 q41 82 41 199q0 35 -14 61q-41 -25 -158 -119q-98 -80 -164 -112v-45z" />
<glyph unicode="&#x432;" horiz-adv-x="612" d="M0 25l25 186q16 115 16 186q0 47 -6 138q-2 35 3 87t5 60q0 268 63 352q47 61 111 80q43 14 139 12q49 -2 97 -24q57 -27 59 -70q2 -104 -92 -160q-59 -33 -211 -67q45 18 63 0q16 2 21 -17q4 -16 -4 -38q-37 -37 -74 -37q-31 0 -59 24q-14 33 -15 68q0 23 6 47 q301 25 302 139q0 10 -5 23q4 2 5 6q0 14 -27 33.5t-41 19.5q-190 -2 -248 -92q-31 -49 -33 -174q2 -82 4 -166q2 -4 7 -8q12 0 30 16q29 25 43 33q39 27 92 27q57 0 148 -60q109 -70 108 -319q0 -123 -65 -219q-76 -111 -191 -111q-53 0 -103 31.5t-75 79.5 q-18 -12 -30 -43q-12 -37 -19 -43h-49zM94 371q0 -20 15 -58q140 109 333 236l-28 41q-80 53 -131 53q-35 0 -47 -4q-41 -27 -95 -72q-47 -68 -47 -196zM117 276l12 -30q31 25 170 119q104 72 109 75q48 38 38 58q-20 -8 -67 -43q-61 -47 -96 -68q-61 -45 -166 -111z M127 156q57 -90 139 -90q106 0 160 108q43 84 43 201q0 37 -14 65q-43 -27 -162 -123q-100 -82 -166 -114v-47z" />
<glyph unicode="&#x433;" horiz-adv-x="565" d="M0 197q0 119 104 182q29 16 197 74q104 35 105 92q0 39 -40 63.5t-81 24.5q-70 0 -123 -27q-18 -10 -61.5 -48t-55.5 -40l-14 37q37 66 125 109q82 41 159 41q70 0 122 -46.5t52 -113.5q0 -102 -106 -146q-129 -39 -195 -57q-104 -37 -104 -145q0 -61 55 -97 q47 -29 111 -28q78 0 133 32q63 39 63 113q0 84 -88 84q-29 0 -67 -27v-18l6 -8q10 2 29.5 12t31.5 10q25 0 46.5 -16t21.5 -41q0 -80 -104 -80q-37 0 -65 26.5t-28 63.5q0 45 42 82t87 37q141 0 142 -139q0 -92 -73 -147.5t-167 -55.5q-84 0 -168 55q-92 62 -92 142z" />
<glyph unicode="&#x434;" horiz-adv-x="663" d="M0 346q0 145 66 248q78 119 217 119q35 0 97 -21.5t79 -46.5q29 -4 51 45h106q0 -12 -24.5 -39.5t-26.5 -34.5q-25 -55 -24 -155q0 -229 10 -406q2 -33 18.5 -103.5t16.5 -107.5q0 -49 -118 -119.5t-173 -70.5q-217 0 -217 162q0 152 158 151q51 0 79 -24q39 -37 56 -43 v-19q0 -74 -13 -114q-12 0 -40.5 -12.5t-43.5 -12.5q-27 0 -60.5 23.5t-33.5 50.5t37 61h51q-2 -57 13 -78q18 -4 31.5 13.5t13.5 37.5t-34 47t-56 27q-102 0 -103 -102q0 -53 55 -90q49 -35 105 -35q72 0 137.5 69.5t65.5 143.5v153l-19 19q-31 -35 -96.5 -62.5 t-112.5 -27.5q-125 0 -202 117q-66 104 -66 237zM78 358q0 -47 16 -63q84 66 250 192q41 23 92 62q15 10 13 37q-145 59 -162 59q-94 0 -156 -100q-53 -86 -53 -187zM100 209l25 -6q14 6 178 129l168 125l-14 53q-31 -31 -195 -150q-141 -104 -162 -151zM147 133 q16 -33 64.5 -59.5t87.5 -26.5q31 0 95.5 29.5t72.5 54.5q20 57 20 98q0 147 -32 166q-203 -158 -308 -262z" />
<glyph unicode="&#x435;" horiz-adv-x="593" d="M0 362q0 141 88 242t227 101q59 0 154.5 -66t95.5 -121q0 -35 -213 -186.5t-213 -169.5q0 -29 62 -64q55 -35 86 -35h65q78 0 187 132l26 -29q-53 -90 -104 -125q-59 -41 -158 -41q-139 0 -225 115q-78 104 -78 247zM63 379q0 -61 37 -111q127 82 369 258 q-18 45 -71.5 75t-104.5 30q-88 0 -159 -81t-71 -171zM109 227q37 2 180 103q61 43 186 131q4 12 2 24v7z" />
<glyph unicode="&#x436;" horiz-adv-x="1081" d="M-14 0q0 31 32 51q31 12 61 25.5t95 111.5q41 61 55 97q109 147 201 145q-20 35 -51 84q-90 119 -166 119q-43 0 -72.5 -27.5t-31.5 -70.5q0 -57 30 -72q14 -8 80 -10l19 24q-61 20 -84 45v35q20 25 59 25q68 -2 66 -82q0 -90 -107 -88q-49 0 -82 40t-33 89q0 47 47 96 q55 57 99 57q49 -6 137 -41q92 -72 143 -182q2 14 2 104q-6 57 -67 89q14 41 59 41q31 0 45 -5v-2q25 -8 31 -22q4 -43 6 -205q51 111 143 182q20 16 66 25q57 10 72 16q49 0 104 -65q39 -45 41 -88q0 -49 -32.5 -89t-82.5 -40q-106 -2 -108 88q0 80 67 82q39 0 60 -25v-35 q-23 -25 -84 -45l18 -24q66 2 80 10q31 14 29 72q0 43 -31 70.5t-72 27.5q-76 0 -167 -119q-10 -12 -50 -84q92 2 199 -145q16 -35 57 -97q47 -70 68.5 -89t87.5 -50q31 -12 31 -49h-228q-14 0 -14 27q0 10 21.5 30.5t21.5 32.5q0 14 -98 150q-92 123 -158 122q-14 0 -27 -6 q-8 -12 -14 -22v-184q-2 -27 -2 -62t94 -55v-31q-125 -4 -190 -2q-33 2 -70 2v31q37 8 60 18q14 12 34 43q0 33 -4 56q0 86 2 184q-6 10 -14 22q-12 6 -27 6q-66 0 -157 -122q-100 -135 -101 -150q0 -12 22.5 -32.5t22.5 -30.5q0 -27 -14 -27h-229z" />
<glyph unicode="&#x437;" horiz-adv-x="567" d="M0 190q0 137 125 138q43 0 86 -39q33 -27 33 -78q0 -35 -25.5 -58.5t-58.5 -23.5q-74 0 -74 68q0 51 49 51q12 0 25.5 -7.5t21.5 -7.5l4 7v16q-37 25 -61 25q-76 -4 -78 -76q-2 -70 68 -103q51 -31 133 -30q66 0 112 28q55 35 56 97q0 104 -105 145q-16 14 -45 12 q-10 -4 -20 -4q-25 0 -25 27q0 33 39 47q43 8 74 41t31 76q0 53 -37 75q-55 41 -97 41q-61 0 -100 -100q0 -10 28.5 -32.5t35.5 -39.5q6 -16 -13 -41q-12 -14 -22 -26l-39 4q-47 70 -47 117q0 20 6 43q41 123 168 123q72 0 147 -52q53 -47 54 -112q9 -74 -87 -148 q23 -10 31 -14q104 -63 105 -182q0 -80 -92 -142q-84 -55 -166 -55q-92 0 -166 54.5t-74 135.5z" />
<glyph unicode="&#x438;" horiz-adv-x="667" d="M0 688q27 16 78 17q57 0 74 -19q6 -29 8 -82v-168q0 -160 12 -217q29 -133 127 -133q63 0 115 25q66 31 67 86q2 66 6 182q4 106 5 182q0 33 -26 58.5t-58 25.5q-10 0 -21 -4q-12 59 -12 49q53 14 133 15q47 0 47 -58q0 -10 -5 -27.5t-5 -27.5v-461q0 -31 49 -45 q60 -17 70 -27q-18 -49 -80 -49q-25 0 -69 15.5t-66 15.5q-27 0 -78.5 -20.5t-77.5 -20.5q-141 0 -178 147q-16 63 -17 267q0 45 -10 112q0 6 4 20.5t4 20.5q0 16 -43 62q-18 20 -53 59z" />
<glyph unicode="&#x439;" horiz-adv-x="655" d="M0 688q27 16 78 17q57 0 74 -19q6 -29 8 -82v-168q0 -160 12 -217q29 -133 127 -133q63 0 115 25q66 31 67 86q2 66 6 182q4 106 5 182q0 33 -26 58.5t-58 25.5q-10 0 -21 -4q-12 59 -12 49q53 14 133 15q47 0 47 -58q0 -10 -5 -27.5t-5 -27.5v-461q0 -31 49 -45 q60 -17 70 -27q-18 -49 -80 -49q-25 0 -69 15.5t-66 15.5q-27 0 -78.5 -20.5t-77.5 -20.5q-141 0 -178 147q-16 63 -17 267q0 45 -10 112q0 6 4 20.5t4 20.5q0 16 -43 62q-18 20 -53 59zM223 692l68 234l102 8l-104 -244z" />
<glyph unicode="&#x43a;" horiz-adv-x="686" d="M-41 1063q14 41 59 41q115 0 132 -37q4 -51 4 -281q0 -102 2 -307q53 115 147 187q20 16 66 24q59 12 73 17q49 2 107 -66q41 -47 41 -90q0 -51 -33 -91t-84 -40q-109 -2 -108 90q-2 82 67 82q39 0 60 -23v-37q-20 -25 -84 -47l18 -24q66 2 82 10q31 16 29 74 q0 43 -31 71.5t-74 28.5q-78 0 -170 -121q-12 -14 -51 -86q94 0 203 -149q16 -35 57 -96q47 -72 69.5 -92.5t90.5 -49.5q31 -14 31 -51h-232q-14 0 -14 27q0 10 22.5 31.5t22.5 33.5q0 14 -103 152q-92 127 -159 127q-14 0 -29 -6q-8 -14 -12 -25v-188q-4 -25 -4 -62 q0 -35 96 -57v-31q-82 -2 -141 -2q-96 0 -117 6q55 45 67 60q31 35 31 81q0 51 -5 152.5t-5 153.5q0 55 5 162.5t5 160.5q0 141 -27 232z" />
<glyph unicode="&#x43b;" horiz-adv-x="729" d="M-2 98q0 43 28.5 74t73.5 31q31 0 54.5 -24.5t23.5 -55.5q0 -45 -16 -45q-14 0 -33 39q-14 29 -33 28q-33 0 -33 -39q0 -63 76 -63t76 119q0 53 4 39q-2 12 -37 104q-18 49 -18 96q0 109 104 215q68 86 359 86q61 0 53 -59q-84 -6 -100 -45q-5 -8 -15 -131q-2 -10 -6 -80 q-4 -43 -2 -82v-151q-4 -41 23 -66q20 -8 71 -31q8 -4 8 -16q2 -6 0 -21q-2 -16 -2 -18q-25 0 -70.5 5t-70.5 5q-20 0 -59 -5t-58 -5l-10 10v21q4 4 64 30q51 25 47 205l-4 232q0 35 -2 118q-27 16 -52 17q-18 0 -51 -12q-55 -23 -61 -25q-66 -68 -80 -88q-27 -41 -27 -94 q0 -27 6 -66q20 -45 39 -90q6 -18 6 -98q0 -76 -36 -129q-43 -63 -115 -64q-47 0 -86 40t-39 89z" />
<glyph unicode="&#x43c;" horiz-adv-x="958" d="M0 70l123 -7q-18 27 -51 80q-72 127 -72 285q0 98 65.5 187.5t161.5 89.5q88 0 127 -23q18 -6 54 -35q20 -29 38 -41q6 -8 13 -18q29 12 56.5 49t43.5 45q39 23 127 23q96 0 164 -95q63 -84 63 -184q0 -156 -71 -283q-12 -20 -39 -61l35 -31l63 -4l-4 -47l-184 6l-6 19 h-9q80 123 80 122q43 72 58 134q10 49 10 110q0 117 -37 168q-57 80 -137 80q-29 0 -91.5 -35t-72.5 -57q-25 -53 -25 -164q0 -229 15 -289q16 -16 94 -33q-2 -18 -25 -36q-35 0 -103.5 -7.5t-103.5 -7.5q-33 0 -47 17q12 23 45 42t43 37q20 37 21 123q0 33 -3 99.5t-3 99.5 q0 61 6 78q-4 18 -10 35q0 -2 -2 -2q-10 31 -76 66.5t-92 35.5q-80 0 -138 -80q-39 -55 -38 -162q0 -135 65 -243l66 -99l8 -32l-10 -23h-152z" />
<glyph unicode="&#x43d;" horiz-adv-x="722" d="M0 635q4 14 10 49q2 0 58 2q37 4 59 0q33 -6 49 -27v-192h334q0 47 -3 116.5t-3 90.5q29 10 53 12q20 10 59 10q10 0 31 4.5t31 4.5q6 -35 10 -50q-45 -6 -70 -24q-16 -12 -29.5 -25.5t-17.5 -107.5q-2 -70 0 -203q2 -188 2 -199q25 -31 93 -51v-45h-240q-16 12 -16 23 q0 12 16 22q57 14 70 37q14 33 14 164v82h-334v-82q0 -10 -8 -92q-2 -49 7 -67.5t38 -29.5q8 -2 45 -12v-45h-240v45q51 16 82 51q0 78 6 228q6 141 5 227q0 41 -33 55q-39 14 -78 29zM176 375h334v43h-334v-43z" />
<glyph unicode="&#x43e;" horiz-adv-x="616" d="M8 379q0 133 80 225q90 100 221 101q106 0 195 -109q82 -104 82 -213q0 -145 -68 -254q-78 -129 -215 -129q-127 0 -203 96q-66 82 -82 217q-10 14 -10 66zM63 362q0 -39 17 -53q80 59 248 168q18 14 69 41q41 23 39 33q-68 68 -104 67q-121 0 -195 -68.5t-74 -187.5z M86 250l16 -25q70 57 191 127q160 94 199 121l-15 29h-37q-4 -6 -180 -123q-113 -74 -174 -129zM139 154q12 -18 72.5 -49t81.5 -31q98 0 162 112q55 99 55 203q0 27 -12 39l-359 -229v-45z" />
<glyph unicode="&#x43f;" horiz-adv-x="696" d="M-2 16q4 31 33 41q8 4 55 11q37 16 37 125q0 20 -3 58t-3 56q0 23 3 66t3 65q0 117 -12 170q-18 14 -103 41l12 51h89q45 0 63 -14q4 -4 35 -49q109 63 178 63q111 0 182 -92q66 -85 66 -198q0 -129 -76 -267q-10 -10 -117 -168l-28 -45q-39 -59 -39 -104q0 -39 42 -82 t81 -43q51 0 92 39q0 57 -31 102l-37 -10q2 -6 12.5 -20.5t10.5 -30.5q0 -47 -51 -47q-41 0 -78 57q14 39 51 72t74 33q39 0 69.5 -38t30.5 -77q0 -59 -42 -101t-101 -42q-90 0 -139.5 58t-49.5 150q0 51 66 158q33 45 110 172q72 125 72 244q0 78 -51 140.5t-125 62.5 q-115 0 -160 -78q-31 -57 -31 -183q0 -25 2.5 -72.5t2.5 -72.5q0 -90 6 -111q16 -39 90 -75l-13 -27q-68 -4 -118 -4q-111 0 -160 16z" />
<glyph unicode="&#x440;" horiz-adv-x="702" d="M-2 -336q102 43 102 221v123q0 63 6.5 193.5t6.5 195.5q0 33 -17 213q-16 10 -92 45l-2 25q25 14 86 14q37 0 72 -4q33 -39 57 -39q10 0 50 27t69 27q299 -1 299 -429q0 -104 -82 -193t-186 -89q-59 0 -113.5 31.5t-69.5 33.5q-29 -8 -28 -92q0 -29 6 -104l6 -90 q10 -31 59 -58q43 -20 39 -53q-25 -25 -45 -24q-160 0 -127 -3q-98 4 -96 29zM168 244q16 -14 39 -15l317 250l-65 17q-25 -29 -158 -129q-119 -90 -133 -123zM178 350q29 8 170 104.5t141 106.5q0 37 -33.5 57.5t-70.5 20.5q-72 0 -135 -45q-72 -49 -72 -119v-125zM188 154 q41 -82 162 -82q102 0 160 88q47 73 47 182q0 47 -14 74h-51q-57 -57 -183 -160q-27 -16 -96 -57q-20 -12 -25 -45z" />
<glyph unicode="&#x441;" horiz-adv-x="585" d="M0 352q0 135 82 240q88 113 219 113q94 0 160.5 -53.5t66.5 -145.5q0 -74 -46 -126t-117 -52q-49 0 -95.5 37.5t-46.5 87.5q0 37 30 65.5t69 28.5q31 0 60.5 -19.5t29.5 -50.5q0 -16 -35 -45h-49q-4 25 -29 64q-25 6 -25 -33t26 -66.5t65 -27.5q43 0 80.5 32.5t37.5 75.5 q0 66 -50 115t-116 49q-96 0 -168.5 -72.5t-72.5 -169.5q0 -324 225 -323q111 0 182 67q27 25 74 78v-47q0 -59 -100 -119q-90 -55 -156 -55q-137 0 -223 111q-78 100 -78 241z" />
<glyph unicode="&#x442;" horiz-adv-x="1095" d="M0 659q8 49 51 50q12 0 38 -5.5t38 -5.5q25 0 41 11q12 -18 43 -54q100 53 139 54q88 0 127 -25q20 -16 88 -102q29 12 56.5 49t44.5 45q39 23 129 22q96 0 166 -94q61 -84 61 -184q0 -129 -64 -238q-33 -45 -108 -157q-61 -98 -62 -172q0 -68 37 -117t103 -49 q117 0 116 96q0 37 -36 76l-70 -9q45 -16 66 -38v-50q-37 -35 -72 -34q-31 0 -55.5 24.5t-24.5 54.5q0 37 33 71t69 34q61 0 129 -49q17 -96 17 -90q0 -66 -50.5 -104t-117.5 -38q-92 0 -156.5 60.5t-64.5 154.5q0 72 69 179q45 61 129 186q57 98 58 186q0 86 -49 158 q-57 78 -140 78q-27 0 -90 -35t-74 -59q-25 -51 -24 -164q0 -229 14 -291q16 -16 94 -31q-2 -20 -24 -39q-35 0 -103.5 -7t-103.5 -7t-49 16q12 23 46 42.5t42 37.5q20 37 20 125q0 33 -3 99.5t-3 101.5q0 61 6 78q-10 57 -52 100t-97 43q-123 0 -150 -59q-37 -82 -37 -418 q0 -63 29 -86q12 -6 53 -21q27 -12 27 -47q-43 -6 -127 -4t-123 -2q0 2 -8 16.5t-8 28.5q8 6 47 10q33 2 45 31q0 20 8 113q6 70 6 114v279q0 23 -59 37q-72 18 -80 24z" />
<glyph unicode="&#x443;" horiz-adv-x="708" d="M-2 -188q0 156 119 155q47 0 77.5 -29.5t30.5 -76.5q0 -51 -71 -88q-35 0 -68 37q0 8 17.5 34.5t17.5 44.5v15q-16 -6 -53 -27q-25 -70 -9 -113q61 -74 97 -61q88 31 133 117q33 59 33 174q0 59 -15.5 156.5t-34.5 142.5q-49 119 -67 170q-12 20 -33 76q-4 14 -20 22 q-23 8 -25 12q-14 16 -57 37q-49 23 -62 31q2 29 25 51h266v-63q-51 -25 -51 -58q0 -31 53 -186q14 -41 74 -201q35 0 82 152q55 178 75 266q-66 12 -122 39q2 18 22 41q115 0 178 4q27 6 74 12q-90 -154 -172 -403q-39 -82 -80 -193q-4 -16 -59 -260q-20 -31 -45 -94 q-82 -98 -203 -98q-70 0 -98.5 52t-28.5 110z" />
<glyph unicode="&#x444;" horiz-adv-x="1058" d="M-4 365q0 143 86 245q92 111 231 111q68 0 168 -100q18 12 34.5 45.5t25.5 44.5q18 -14 18 -39q12 -6 23 -6q8 0 49 26.5t69 26.5q297 0 297 -428q0 -104 -80.5 -194.5t-185.5 -90.5q-59 0 -114.5 33t-69.5 35l-6 12t-4 6q2 -98 2 -127q0 -186 16 -227q8 -16 39 -40 t37 -42l-27 -25q-66 10 -164 11h-47l-16 -11v62q35 14 39 16q27 12 35 27q37 68 36 284q0 55 -28 56q45 0 -47.5 -39t-130.5 -39q-127 0 -211 123q-74 111 -74 244zM63 352l25 -12q116 74 352 217q-55 86 -108 86q-236 0 -269 -291zM88 285q4 -20 12 -64q84 43 187 113 l184 123l4 26l-39 27q-135 -96 -170 -121q-98 -66 -178 -104zM129 170q90 -106 172 -107q86 0 139 97q47 80 47 172q0 37 -16 65q-117 -70 -342 -227zM535 254q16 -12 36 -12l316 250l-64 16q-25 -27 -159 -129q-106 -80 -129 -115v-10zM541 365q31 8 172 104t141 106 q0 35 -34 56.5t-72 21.5q-70 0 -136 -45q-72 -51 -71 -119v-124zM551 168q43 -82 164 -82q102 0 157 88q48 73 48 182q0 47 -15 74h-49q-59 -59 -184 -162q-27 -14 -94 -55q-20 -12 -27 -45z" />
<glyph unicode="&#x445;" horiz-adv-x="819" d="M0 49q45 20 74 35q41 20 67 45q51 55 109 127q86 106 86 133q0 25 -66 111q-59 78 -88 102q-16 16 -88 39q-49 16 -51 45q6 18 25 19h235q43 0 68 -19q-6 -10 -76 -55l-2 -13q-2 -31 35 -83q31 -45 63 -70q41 43 121 133v33q-29 12 -76 41l10 16q160 16 224 17 q35 0 61 -5q-20 -27 -69 -57q-57 -37 -76 -55q-27 -25 -78 -94q-59 -78 -59 -103q0 -12 49 -74l63 -84q131 -199 219 -204l-4 -23q-8 -6 -22 -6q-8 0 -26.5 4t-29.5 4q-18 0 -55 -4t-55 -4q-55 0 -144 8q57 51 99 49l2 9q8 8 8 24q0 25 -67.5 120t-94.5 112 q-74 -74 -151 -197v-43q39 -6 108 -33v-41h-338z" />
<glyph unicode="&#x446;" horiz-adv-x="710" d="M-2 682q29 16 78 16q57 0 74 -18q6 -29 8 -82v-166q0 -160 10 -215q29 -133 127 -133q63 0 115 25q66 31 65 86q2 63 6 180q4 104 4 180q0 33 -24.5 58.5t-59.5 25.5q-8 0 -18 -4q-12 59 -12 49q51 14 131 14q47 0 47 -57q0 -10 -5 -27.5t-5 -27.5v-457q0 -43 10 -43 q4 0 14 5t16.5 5t20.5 13.5t29 13.5q10 0 22 -6l27 -109q-137 -104 -137 -174q0 -23 16 -51v-2q2 -6 18 4q8 4 20.5 29.5t25.5 31.5q27 14 59 2q31 -12 46 -38.5t15 -49.5q0 -43 -53 -71q-23 -12 -47 -13q-35 0 -70 23q-80 53 -79 123q0 72 83 178q-4 18 -10 27 q-23 -14 -55 -2q-45 16 -66 16q-27 0 -78 -21.5t-77 -21.5q-141 0 -178 147q-14 63 -15 263q0 47 -10 114q0 6 4 19.5t4 19.5q0 16 -43 62q-18 20 -53 59z" />
<glyph unicode="&#x447;" horiz-adv-x="722" d="M0 635q4 14 10 49q2 0 58 2q37 4 59 0q33 -6 49 -27l-4 -100q-2 -72 2 -117q4 -63 19 -90q55 -104 161 -104q102 0 148 90q8 16 8 90q0 49 -3 141.5t-3 104.5q29 10 53 12q20 10 59 10q10 0 31 4.5t31 4.5q6 -35 10 -50q-45 -6 -70 -24q-16 -12 -29.5 -25.5t-17.5 -107.5 q-2 -70 0 -203q2 -188 2 -199q25 -31 93 -51v-45h-240q-16 12 -16 23q0 12 16 22q57 14 70 37q14 33 14 164q-39 -33 -88 -49q-18 -6 -74 -17q-29 -6 -53 -6q-76 0 -152 90q-27 31 -32 287q0 41 -36 55.5t-75 28.5z" />
<glyph unicode="&#x448;" horiz-adv-x="1054" d="M0 688q27 16 78 17q57 0 74 -19q6 -29 8 -82v-168q0 -160 12 -217q29 -133 127 -133q45 0 94 25q25 23 78 53q-12 68 -12 250q0 236 -53 235q-10 0 -25 -12q-25 27 -23 43q2 4 2 8q29 16 78 17q59 0 74 -19q8 -29 8 -82v-168q0 -160 12 -217q29 -133 127 -133q45 0 97 25 q66 31 67 86q2 66 6 182q4 106 5 182q0 33 -26 58.5t-58 25.5q-10 0 -21 -4q-12 59 -12 49q51 14 131 15q49 0 49 -58q0 -10 -5 -27.5t-5 -27.5v-461q0 -31 49 -45q60 -17 68 -27q-16 -49 -80 -49q-23 0 -67 15.5t-66 15.5q-25 0 -77 -20.5t-61 -20.5q-104 0 -151 80 q-6 2 -66 -37q-66 -43 -143 -43q-141 0 -178 147q-16 63 -17 267q0 45 -10 112q0 6 4 20.5t4 20.5q0 12 -25.5 39t-50.5 23q-29 31 -20 59z" />
<glyph unicode="&#x449;" horiz-adv-x="1060" d="M0 686q27 16 76 16q59 0 74 -18q6 -29 8 -82v-164q0 -160 12 -215q27 -133 125 -133q43 0 94 25q25 23 76 53q-12 66 -12 246q0 233 -52 233q-12 0 -26 -12q-23 27 -21 43q0 4 2 8q27 16 76 16q57 0 74 -18q6 -29 8 -82v-164q0 -160 12 -215q27 -133 125 -133q43 0 94 25 q66 31 66 86q2 63 6 180q4 104 4 178q0 33 -24.5 58.5t-57.5 25.5q-10 0 -20 -4q-10 59 -10 49q51 14 129 14q47 0 47 -57q0 -10 -5.5 -27.5t-5.5 -25.5v-457q0 -27 41 -41q10 4 17.5 4t27 26t37.5 26q6 0 15 -3l20 -137q-137 -104 -137 -172q0 -23 16 -51l-2 -2 q4 -8 16.5 0t25 32.5t22.5 30.5q29 16 59 5q61 -25 62 -89q0 -43 -52 -71q-25 -12 -49 -12q-33 0 -67 22q-80 53 -80 123q0 72 84 176q-9 8 -15 14h-2q-25 0 -67.5 15.5t-65.5 15.5q-25 0 -76 -20.5t-59 -20.5q-104 0 -151 80q-4 0 -65.5 -40t-139.5 -40q-139 0 -176 146 q-16 63 -17 262q0 45 -10 112q0 6 4 19.5t4 19.5q0 14 -24.5 40t-51.5 22q-27 31 -18 59z" />
<glyph unicode="&#x44a;" horiz-adv-x="774" d="M0 451q0 20 28.5 52t49.5 32q29 0 43 -13q2 -8 2 -20q0 -16 -7 -46t-7 -44q37 20 36 57q0 109 -102 205q41 31 115 31q20 0 59 -5q49 -2 131 5q4 -41 -2 -115q-6 -92 -6 -117q0 -39 16 -53q86 55 119 55q111 0 176 -53q72 -59 72 -168q0 -96 -55 -172q-61 -82 -154 -82 q-25 0 -74 21.5t-73 21.5q-6 0 -24.5 -12.5t-27.5 -14.5q-33 -16 -59 -12l-78 14q0 51 19 58q16 4 38.5 -1t26.5 -3q27 25 27 112q0 45 -7.5 134.5t-7.5 132.5v184h-65q-4 -8 -4 -19q0 -14 9 -42.5t9 -43.5q0 -66 -37 -116q-41 -57 -102 -58q-29 0 -56.5 34t-27.5 61z M358 264q0 -109 29 -153.5t107 -44.5q74 0 120 59q43 53 43 129q0 66 -49 116t-114 50q-43 0 -103 -53q-33 -29 -33 -103z" />
<glyph unicode="&#x44b;" horiz-adv-x="808" d="M0 25q0 49 16 53q47 4 64 -2q27 23 26 108q0 41 -7 126t-7 128v178l-90 29l6 43l119 -8l117 8v-37l-86 -35q-2 -143 -4 -157q0 -37 16 -51q84 53 113 53q106 0 170 -51q70 -57 69 -160q0 -92 -55 -164q-57 -78 -145 -78q-25 0 -71 20.5t-71 20.5q-6 0 -23.5 -11 t-25.5 -15q-31 -14 -55 -11zM172 258q0 -102 27.5 -144t101.5 -42q70 0 114 53t44 125q0 63 -47 110.5t-111 47.5q-41 0 -98 -52q-31 -26 -31 -98zM508 0v45q84 20 84 201v413q8 10 47 28t53 18h68q6 -35 10 -50q-86 -45 -115 -63v-496q25 -31 93 -51v-45h-240z" />
<glyph unicode="&#x44c;" horiz-adv-x="579" d="M0 25q0 49 16 53q47 4 64 -2q27 23 26 108q0 41 -7 126t-7 128v178l-90 29l6 43l119 -8l117 8v-37l-86 -35q-2 -143 -4 -157q0 -37 16 -51q84 53 113 53q106 0 170 -51q70 -57 69 -160q0 -92 -55 -164q-57 -78 -145 -78q-25 0 -71 20.5t-71 20.5q-6 0 -23.5 -11 t-25.5 -15q-31 -14 -55 -11zM172 258q0 -102 27.5 -144t101.5 -42q70 0 114 53t44 125q0 63 -47 110.5t-111 47.5q-41 0 -98 -52q-31 -26 -31 -98z" />
<glyph unicode="&#x44d;" horiz-adv-x="618" d="M0 174v47q18 8 31 8q39 0 49 -77q84 -76 176 -76q188 0 219 227l-225 -123l-31 45l262 152v24.5v26.5l-284 -168l-31 33l305 178q-18 53 -63 96q-74 74 -168 74q-66 0 -116 -49t-50 -115q0 -23 18 -49q20 -10 49 -6l-12 74q14 41 64 53q45 -4 71 -51q6 -23 6 -41 q0 -45 -34 -82q-35 -18 -91 -23q-66 12 -88 49q-29 80 -28 105q0 92 69 147q63 51 158 52q131 0 219 -113q82 -104 82 -240q0 -141 -78 -241q-86 -111 -223 -111q-66 0 -156 55q-100 59 -100 119z" />
<glyph unicode="&#x44e;" horiz-adv-x="872" d="M0 655q4 16 10 50h66q14 0 53 -17.5t47 -28.5v-405q0 -27 2 -51l84 57q-4 23 -8 47q-16 25 -16 51q0 133 86 231.5t217 98.5q102 0 186 -103.5t84 -209.5q0 -141 -66 -250q-78 -125 -210 -125q-145 0 -224 125l-90 -49q16 -14 37 -19v-45h-238v45q68 18 93 52v485 q-29 18 -113 61zM184 154q4 -23 13 -39l90 63q-9 19 -15 39zM299 354q0 -39 16 -51q78 57 242 164q16 14 66 45q14 6 28.5 11.5t12.5 15.5q-66 66 -103 65q-117 0 -189.5 -66.5t-72.5 -183.5zM322 244l14 -23q70 55 188 125q156 90 193 117l-12 26h-37q-4 -6 -176 -118 q-111 -72 -170 -127zM375 150q10 -16 69.5 -47t79.5 -31q94 0 158 110q55 95 55 199q0 25 -14 37l-348 -223v-45z" />
<glyph unicode="&#x44f;" horiz-adv-x="692" d="M0 0q0 33 33 51q31 12 59 27q12 4 51 78q51 94 68 120q37 51 86 74q39 12 78 25q-207 14 -238 155q-10 90 36 132.5t97 42.5q12 10 62 10q129 0 155 -33l17 -10q0 4 13 14t13 12h99q0 -20 4 -49q-8 4 -15 4q-20 0 -34.5 -21.5t-16.5 -33.5q-5 -188 13 -520q0 -27 79 -45 v-31q-80 -2 -139 -2q-94 0 -114 6q-8 8 4 35q6 6 51 20q35 10 35 31q0 6 8 119q6 106 4 147q-4 6 -19 7q-68 0 -174 -78q-119 -86 -118 -170q0 -14 1 -26.5t23.5 -33t22.5 -30.5q0 -27 -15 -27h-229zM205 539q0 -39 14 -54.5t68 -33.5q119 -39 172 -29q4 -2 23.5 10t23.5 29 q0 18 -8 143l-11 27q-41 31 -163 31q-41 0 -48 -11q-16 0 -49 -33q-23 -23 -22 -79z" />
<glyph unicode="&#x451;" horiz-adv-x="1406" d="M92 -369v2212h1223v-2212h-1223zM184 0h1039v489h-574v52h525v409h-525v51h574v474h-187v264h-651v-264h-201v-1475zM246 61v1352h915v-350h-575v-176h526v-285h-526v-174h575v-367h-915zM446 1475v200h232v-200h-232zM741 1475v200h232v-200h-232z" />
<glyph unicode="&#x490;" horiz-adv-x="1718" d="M92 -369v2212h1534v-2212h-1534zM184 1475l172 -369h-129v-283h265l40 -86h-305v-284h398v-453h452v453h414v284h-311l41 86h270v283h-133l176 369h-498l-182 -414h-2l-174 414h-494zM283 1413h354l160 -375q31 -74 57 -192q25 115 59 192l164 375h359l-176 -369h170 v-159h-248l-103 -209h351v-162h-414v-453h-328v453h-397v162h338l-99 209h-239v159h162z" />
<glyph unicode="&#x2000;" horiz-adv-x="921" />
<glyph unicode="&#x2001;" horiz-adv-x="1843" />
<glyph unicode="&#x2002;" horiz-adv-x="921" />
<glyph unicode="&#x2003;" horiz-adv-x="1843" />
<glyph unicode="&#x2004;" horiz-adv-x="614" />
<glyph unicode="&#x2005;" horiz-adv-x="460" />
<glyph unicode="&#x2006;" horiz-adv-x="307" />
<glyph unicode="&#x2007;" horiz-adv-x="307" />
<glyph unicode="&#x2008;" horiz-adv-x="230" />
<glyph unicode="&#x2009;" horiz-adv-x="368" />
<glyph unicode="&#x200a;" horiz-adv-x="102" />
<glyph unicode="&#x2010;" horiz-adv-x="536" d="M41 504v356h51q25 -143 107 -143q106 0 182 6q29 14 48.5 82.5t41.5 77.5l25 -25v-57q0 -285 -13 -299q-29 2 -49 24q-12 86 -44 107.5t-122 21.5q-125 0 -157 -28q-16 -14 -17 -54v-6q0 -61 -53 -63z" />
<glyph unicode="&#x2011;" horiz-adv-x="536" d="M41 504v356h51q25 -143 107 -143q106 0 182 6q29 14 48.5 82.5t41.5 77.5l25 -25v-57q0 -285 -13 -299q-29 2 -49 24q-12 86 -44 107.5t-122 21.5q-125 0 -157 -28q-16 -14 -17 -54v-6q0 -61 -53 -63z" />
<glyph unicode="&#x2012;" horiz-adv-x="536" d="M41 504v356h51q25 -143 107 -143q106 0 182 6q29 14 48.5 82.5t41.5 77.5l25 -25v-57q0 -285 -13 -299q-29 2 -49 24q-12 86 -44 107.5t-122 21.5q-125 0 -157 -28q-16 -14 -17 -54v-6q0 -61 -53 -63z" />
<glyph unicode="&#x2013;" horiz-adv-x="995" d="M92 -369v2212h811v-2212h-811zM184 401h627v281h-627v-281zM231 446v191h533v-191h-533z" />
<glyph unicode="&#x2014;" horiz-adv-x="1525" d="M92 -369v2212h1342v-2212h-1342zM184 401h1157v281h-1157v-281zM229 446v191h1067v-191h-1067z" />
<glyph unicode="&#x2018;" horiz-adv-x="784" d="M92 -369v2212h600v-2212h-600zM184 803h398v409h18v263h-215q-98 0 -149.5 -66t-51.5 -166v-440zM242 858v385q0 176 143 176h158v-151h-176v-66h159v-344h-284z" />
<glyph unicode="&#x2019;" horiz-adv-x="780" d="M92 -369v2212h596v-2212h-596zM184 803h211q100 0 154 67q47 62 47 164v441h-395v-412h-17v-260zM242 858v150h172v67h-158v344h283v-385q0 -176 -144 -176h-153z" />
<glyph unicode="&#x201a;" horiz-adv-x="782" d="M92 -369v2212h598v-2212h-598zM184 0v-258h211q98 0 154 68q49 61 49 161v439h-395v-410h-19zM242 -55h174v67h-158v342h283v-383q0 -174 -146 -174h-153v148z" />
<glyph unicode="&#x201c;" horiz-adv-x="1153" d="M92 -369v2212h969v-2212h-969zM184 803h768v409h17v263h-213q-111 0 -164 -91v91h-209q-96 0 -150 -70q-49 -61 -49 -162v-440zM240 858v385q0 176 143 176h154v-151h-172v-66h157v-344h-282zM614 858v385q0 176 142 176h157v-151h-176v-66h160v-344h-283z" />
<glyph unicode="&#x201d;" horiz-adv-x="1150" d="M92 -369v2212h967v-2212h-967zM184 803h211q109 0 162 86v-86h211q98 0 152 67q47 62 47 164v441h-770v-412h-13v-260zM240 858v150h172v67h-158v344h283v-385q0 -176 -142 -176h-155zM612 858v150h174v67h-157v344h282v-385q0 -176 -143 -176h-156z" />
<glyph unicode="&#x201e;" horiz-adv-x="1153" d="M92 -369v2212h969v-2212h-969zM184 0v-258h211q106 0 162 84v-84h211q96 0 152 68q49 61 49 161v439h-770v-410h-15zM240 -55h174v67h-160v342h285v-383q0 -174 -144 -174h-155v148zM612 -55h174v67h-157v342h284v-383q0 -174 -145 -174h-156v148z" />
<glyph unicode="&#x2020;" horiz-adv-x="1409" d="M92 -369v2212h1225v-2212h-1225zM184 612h332v-895h389v895h320v420h-320v443h-389v-443h-332v-420zM248 676v293h330v442h264v-442h319v-293h-319v-895h-264v895h-330z" />
<glyph unicode="&#x2022;" horiz-adv-x="845" d="M92 -369v2212h662v-2212h-662zM184 735q0 -102 66 -192q74 -96 172 -97q100 0 174 97q66 88 66 192t-66 191q-72 92 -172 92t-172 -94q-68 -86 -68 -189zM238 735q0 88 49 154q53 74 137 74t137 -74q47 -68 47 -154q0 -88 -47 -157q-53 -76 -139 -76q-84 0 -137 78 q-47 68 -47 155z" />
<glyph unicode="&#x2026;" horiz-adv-x="1515" d="M92 -369v2212h1331v-2212h-1331zM184 0h357v410h-357v-410zM233 51v307h256v-307h-256zM578 0h356v410h-356v-410zM629 51v307h256v-307h-256zM973 0h358v410h-358v-410zM1024 51v307h256v-307h-256z" />
<glyph unicode="&#x202f;" horiz-adv-x="368" />
<glyph unicode="&#x2030;" horiz-adv-x="2252" d="M92 -369v2212h2069v-2212h-2069zM184 997q0 -90 54 -166q57 -86 143 -86h246q37 0 63 11l-342 -756h293l174 387v-133q0 -90 51 -168q59 -86 146 -86h245q123 0 187 117q61 -117 162 -117h245q98 0 160 80q57 72 57 174v235q0 100 -55 169t-153 69h-256q-106 0 -162 -106 q-66 106 -174 106h-258q-20 0 -45 -6l340 754h-285l-172 -377v137q0 96 -58.5 168t-152.5 72h-258q-86 0 -140.5 -75t-54.5 -165v-238zM246 997v238q0 72 30 121q35 57 103 57h258q147 0 147 -178v-238q0 -190 -157 -190h-246q-63 0 -102 65q-33 55 -33 125zM434 1018h164 v182h-164v-182zM444 61l615 1352h149l-606 -1352h-158zM877 254v235q0 72 30 119q35 57 103 58h258q145 0 145 -177v-235q0 -193 -156 -193h-245q-68 0 -105 66q-31 55 -30 127zM1067 272h160v187h-160v-187zM1473 254v235q0 70 28 119q37 57 103 58h256q147 0 147 -177 v-235q0 -193 -156 -193h-245q-66 0 -103 66q-31 55 -30 127zM1657 272h164v187h-164v-187z" />
<glyph unicode="&#x2039;" horiz-adv-x="876" d="M92 -369v2212h692v-2212h-692zM184 412l146 -254h360l-182 338v104l184 326h-362l-146 -254v-260zM242 428v227l120 213h232l-143 -252v-135l143 -266h-232z" />
<glyph unicode="&#x203a;" horiz-adv-x="876" d="M92 -369v2212h692v-2212h-692zM184 926l187 -326v-104l-185 -338h361l145 254v260l-145 254h-363zM283 215l145 266v135l-145 252h231l121 -213v-227l-121 -213h-231z" />
<glyph unicode="&#x205f;" horiz-adv-x="460" />
<glyph unicode="&#x2122;" horiz-adv-x="1429" d="M92 -369v2212h1245v-2212h-1245zM240 1276h137v-410h137v410h135v143h-409v-143zM729 866h135v273l94 -199l97 199v-273h135v553h-135l-97 -213l-94 213h-135v-553z" />
<glyph unicode="&#x25fc;" horiz-adv-x="706" d="M0 0v707h707v-707h-707z" />
</font>
</defs>
</svg>
